<?xml version="1.0" encoding="utf-8"?>
<!-- Generator: Adobe Illustrator 26.5.0, SVG Export Plug-In . SVG Version: 6.00 Build 0)  -->
<svg version="1.1" id="Layer_1" xmlns="http://www.w3.org/2000/svg" xmlns:xlink="http://www.w3.org/1999/xlink" x="0px" y="0px"
	 width="1044px" height="558px" viewBox="0 0 1044 558" style="enable-background:new 0 0 1044 558;" xml:space="preserve">
<style type="text/css">
	.st0{fill:#FFFFFF;stroke:#939598;stroke-width:3.9009;stroke-miterlimit:10;}
	.st1{fill:#FFFFFF;}
	.st2{fill:#FEFEFE;}
	.st3{fill:#FDFDFD;}
	.st4{fill:#FCFCFC;}
	.st5{fill:#FBFBFB;}
	.st6{fill:#FAFAFA;}
	.st7{fill:#F9F9F9;}
	.st8{fill:#F8F8F8;}
	.st9{fill:#F7F7F8;}
	.st10{fill:#F6F6F7;}
	.st11{fill:#F5F5F6;}
	.st12{fill:#F4F4F5;}
	.st13{fill:#F3F3F4;}
	.st14{fill:#F2F2F3;}
	.st15{fill:#F1F1F2;}
	.st16{fill:#F0F1F1;}
	.st17{fill:#EFF0F0;}
	.st18{fill:#EEEFEF;}
	.st19{fill:#EDEEEE;}
	.st20{fill:#ECEDED;}
	.st21{fill:#EBECEC;}
	.st22{fill:#EAEBEB;}
	.st23{fill:#E9EAEA;}
	.st24{fill:#E8E9EA;}
	.st25{fill:#E7E8E9;}
	.st26{fill:#E6E7E8;}
	.st27{fill:#E5E6E7;}
	.st28{fill:#E4E5E6;}
	.st29{fill:#E3E4E5;}
	.st30{fill:#E2E3E4;}
	.st31{fill:#E1E2E3;}
	.st32{fill:#E0E1E2;}
	.st33{fill:#DFE0E1;}
	.st34{fill:#DEDFE0;}
	.st35{fill:#DDDEDF;}
	.st36{fill:#DCDDDE;}
	.st37{fill:#DBDCDD;}
	.st38{fill:#DADBDC;}
	.st39{fill:#D9DADC;}
	.st40{fill:#D8D9DB;}
	.st41{fill:#D7D8DA;}
	.st42{fill:#D6D7D9;}
	.st43{fill:#D5D6D8;}
	.st44{fill:#D4D5D7;}
	.st45{fill:#D3D4D6;}
	.st46{fill:#D3D4D5;}
	.st47{fill:#D2D3D4;}
	.st48{fill:#D1D2D3;}
	.st49{fill:#D0D1D2;}
	.st50{fill:#CFD0D1;}
	.st51{fill:#CECFD0;}
	.st52{fill:#CDCECF;}
	.st53{fill:#CCCDCF;}
	.st54{fill:#CBCCCE;}
	.st55{fill:#CACBCD;}
	.st56{fill:#C9CACC;}
	.st57{fill:#C8C9CB;}
	.st58{fill:#C7C8CA;}
	.st59{fill:#C6C7C9;}
	.st60{fill:#C5C6C8;}
	.st61{fill:#C4C5C7;}
	.st62{fill:#C3C4C6;}
	.st63{fill:#C2C3C5;}
	.st64{fill:#C1C2C4;}
	.st65{fill:#C0C1C3;}
	.st66{fill:#BFC0C2;}
	.st67{fill:#BEBFC1;}
	.st68{fill:#BDBEC1;}
	.st69{fill:#BCBDC0;}
	.st70{fill:#BBBCBF;}
	.st71{fill:#BABBBE;}
	.st72{fill:#B9BABD;}
	.st73{fill:#B8B9BC;}
	.st74{fill:#B7B8BB;}
	.st75{fill:#B6B7BA;}
	.st76{fill:#B5B7B9;}
	.st77{fill:#B4B6B8;}
	.st78{fill:#B3B5B7;}
	.st79{fill:#B2B4B6;}
	.st80{fill:#B1B3B5;}
	.st81{fill:#B0B2B4;}
	.st82{fill:#AFB1B3;}
	.st83{fill:#AEB0B3;}
	.st84{fill:#ADAFB2;}
	.st85{fill:#ACAEB1;}
	.st86{fill:#ABADB0;}
	.st87{fill:#AAACAF;}
	.st88{fill:#A9ABAE;}
	.st89{fill:#A8AAAD;}
	.st90{fill:#A7A9AC;}
	.st91{fill:#27AAE1;}
	.st92{fill:#8B5E3C;}
	.st93{fill:#C49A6C;}
	.st94{opacity:0.6;fill:#0078A5;}
	.st95{fill:#A97C50;}
	.st96{fill:#754C29;}
	.st97{fill:#F15A29;}
	.st98{fill:#BE1E2D;}
	.st99{fill:#8AD4DF;}
	.st100{opacity:0.4;fill:#0078A5;}
	.st101{opacity:0.8;fill:#0078A5;}
	.st102{opacity:0.4;fill:#5AB9DE;}
	.st103{fill:#9FDDF9;}
	.st104{fill:#0078A5;}
	.st105{fill:#939598;}
	.st106{fill:#D1D3D4;}
	.st107{fill:none;stroke:#BE1E2D;stroke-miterlimit:10;}
	.st108{fill:none;stroke:#0078A5;stroke-miterlimit:10;}
	.st109{fill:#FBB040;}
	.st110{fill:#FFF200;}
	.st111{fill:none;stroke:#231F20;stroke-width:2;stroke-miterlimit:10;}
	.st112{fill:#231F20;}
</style>
<path class="st0" d="M43.84,549h956.32c19.24,0,34.84-15.6,34.84-34.84V43.84C1035,24.6,1019.4,9,1000.16,9H43.84
	C24.6,9,9,24.6,9,43.84v470.32C9,533.4,24.6,549,43.84,549z"/>
<g>
	<path class="st1" d="M705.14,300.51L491.45,407.35c-24.5,12.25-24.5,47.2,0,59.45l141.69,70.84c9.36,4.68,20.37,4.68,29.73,0
		L876.55,430.8c24.5-12.25,24.5-47.2,0-59.45l-141.69-70.84C725.51,295.83,714.49,295.83,705.14,300.51z"/>
	<path class="st2" d="M705.03,300.96L492.28,407.33c-24.46,12.23-24.46,47.13,0,59.36l141.01,70.51c9.34,4.67,20.34,4.67,29.68,0
		l212.75-106.38c24.46-12.23,24.46-47.13,0-59.36l-141.01-70.51C725.37,296.29,714.37,296.29,705.03,300.96z"/>
	<path class="st3" d="M704.92,301.4L493.11,407.31c-24.42,12.21-24.42,47.06,0,59.27l140.34,70.17c9.33,4.66,20.31,4.66,29.63,0
		l211.82-105.91c24.42-12.21,24.42-47.06,0-59.27L734.55,301.4C725.23,296.74,714.25,296.74,704.92,301.4z"/>
	<path class="st4" d="M704.81,301.85L493.93,407.29c-24.38,12.19-24.38,46.99,0,59.18L633.6,536.3c9.31,4.66,20.28,4.66,29.59,0
		l210.88-105.44c24.38-12.19,24.38-46.99,0-59.18L734.4,301.85C725.09,297.2,714.13,297.2,704.81,301.85z"/>
	<path class="st5" d="M704.7,302.3L494.76,407.27c-24.34,12.17-24.34,46.91,0,59.09l138.99,69.5c9.3,4.65,20.24,4.65,29.54,0
		l209.94-104.97c24.34-12.17,24.34-46.91,0-59.09l-138.99-69.5C724.95,297.65,714,297.65,704.7,302.3z"/>
	<path class="st6" d="M704.6,302.75l-209.01,104.5c-24.31,12.15-24.31,46.84,0,58.99l138.32,69.16c9.28,4.64,20.21,4.64,29.5,0
		l209.01-104.5c24.31-12.15,24.31-46.84,0-58.99l-138.32-69.16C724.81,298.11,713.88,298.11,704.6,302.75z"/>
	<path class="st7" d="M704.49,303.2L496.41,407.23c-24.27,12.13-24.27,46.77,0,58.9l137.65,68.82c9.27,4.64,20.18,4.64,29.45,0
		l208.07-104.04c24.27-12.13,24.27-46.77,0-58.9L733.94,303.2C724.67,298.56,713.76,298.56,704.49,303.2z"/>
	<path class="st8" d="M704.38,303.64L497.24,407.21c-24.23,12.12-24.23,46.7,0,58.81l136.98,68.49c9.26,4.63,20.15,4.63,29.41,0
		l207.14-103.57c24.23-12.12,24.23-46.7,0-58.81l-136.98-68.49C724.53,299.02,713.63,299.02,704.38,303.64z"/>
	<path class="st9" d="M704.27,304.09l-206.2,103.1c-24.19,12.1-24.19,46.62,0,58.72l136.3,68.15c9.24,4.62,20.12,4.62,29.36,0
		l206.2-103.1c24.19-12.1,24.19-46.62,0-58.72l-136.3-68.15C724.39,299.47,713.51,299.47,704.27,304.09z"/>
	<path class="st10" d="M704.16,304.54L498.89,407.17c-24.16,12.08-24.16,46.55,0,58.63l135.63,67.81c9.23,4.61,20.09,4.61,29.31,0
		l205.27-102.63c24.16-12.08,24.16-46.55,0-58.63l-135.63-67.81C724.25,299.93,713.39,299.93,704.16,304.54z"/>
	<path class="st11" d="M704.05,304.99L499.72,407.15c-24.12,12.06-24.12,46.48,0,58.54l134.96,67.48c9.21,4.61,20.06,4.61,29.27,0
		L868.28,431c24.12-12.06,24.12-46.48,0-58.54l-134.96-67.48C724.11,300.38,713.27,300.38,704.05,304.99z"/>
	<path class="st12" d="M703.95,305.43l-203.4,101.7c-24.08,12.04-24.08,46.41,0,58.45l134.28,67.14c9.2,4.6,20.02,4.6,29.22,0
		l203.4-101.7c24.08-12.04,24.08-46.41,0-58.45l-134.28-67.14C723.97,300.84,713.14,300.84,703.95,305.43z"/>
	<path class="st13" d="M703.84,305.88L501.38,407.11c-24.04,12.02-24.04,46.33,0,58.35l133.61,66.8c9.18,4.59,19.99,4.59,29.18,0
		l202.46-101.23c24.04-12.02,24.04-46.33,0-58.35l-133.61-66.81C723.83,301.29,713.02,301.29,703.84,305.88z"/>
	<path class="st14" d="M703.73,306.33L502.2,407.09c-24.01,12-24.01,46.26,0,58.26l132.94,66.47c9.17,4.58,19.96,4.58,29.13,0
		L865.8,431.06c24.01-12,24.01-46.26,0-58.26l-132.94-66.47C723.69,301.75,712.9,301.75,703.73,306.33z"/>
	<path class="st15" d="M703.62,306.78l-200.59,100.3c-23.97,11.98-23.97,46.19,0,58.17l132.26,66.13c9.15,4.58,19.93,4.58,29.09,0
		l200.59-100.3c23.97-11.98,23.97-46.19,0-58.17l-132.26-66.13C723.55,302.2,712.78,302.2,703.62,306.78z"/>
	<path class="st16" d="M703.51,307.23l-199.65,99.83c-23.93,11.97-23.93,46.11,0,58.08l131.59,65.8c9.14,4.57,19.9,4.57,29.04,0
		l199.65-99.83c23.93-11.97,23.93-46.11,0-58.08l-131.59-65.8C723.41,302.66,712.65,302.66,703.51,307.23z"/>
	<path class="st17" d="M703.4,307.67l-198.72,99.36c-23.89,11.95-23.89,46.04,0,57.99l130.92,65.46c9.13,4.56,19.87,4.56,28.99,0
		l198.72-99.36c23.89-11.95,23.89-46.04,0-57.99L732.4,307.67C723.27,303.11,712.53,303.11,703.4,307.67z"/>
	<path class="st18" d="M703.3,308.12l-197.78,98.89c-23.85,11.93-23.85,45.97,0,57.9l130.24,65.12c9.11,4.56,19.84,4.56,28.95,0
		l197.78-98.89c23.85-11.93,23.85-45.97,0-57.9l-130.24-65.12C723.13,303.57,712.41,303.57,703.3,308.12z"/>
	<path class="st19" d="M703.19,308.57l-196.85,98.42c-23.82,11.91-23.82,45.9,0,57.81l129.57,64.79c9.1,4.55,19.81,4.55,28.9,0
		l196.85-98.42c23.82-11.91,23.82-45.9,0-57.81l-129.57-64.79C722.99,304.02,712.28,304.02,703.19,308.57z"/>
	<path class="st20" d="M703.08,309.02l-195.91,97.96c-23.78,11.89-23.78,45.82,0,57.71l128.9,64.45c9.08,4.54,19.77,4.54,28.86,0
		l195.91-97.96c23.78-11.89,23.78-45.82,0-57.71l-128.9-64.45C722.85,304.48,712.16,304.48,703.08,309.02z"/>
	<path class="st21" d="M702.97,309.46l-194.98,97.49c-23.74,11.87-23.74,45.75,0,57.62l128.23,64.11c9.07,4.53,19.74,4.53,28.81,0
		l194.98-97.49c23.74-11.87,23.74-45.75,0-57.62l-128.23-64.11C722.71,304.93,712.04,304.93,702.97,309.46z"/>
	<path class="st22" d="M702.86,309.91l-194.04,97.02c-23.7,11.85-23.7,45.68,0,57.53l127.55,63.78c9.05,4.53,19.71,4.53,28.77,0
		l194.04-97.02c23.7-11.85,23.7-45.68,0-57.53l-127.55-63.78C722.57,305.39,711.92,305.39,702.86,309.91z"/>
	<path class="st23" d="M702.75,310.36l-193.11,96.55c-23.67,11.83-23.67,45.61,0,57.44l126.88,63.44c9.04,4.52,19.68,4.52,28.72,0
		l193.11-96.55c23.67-11.83,23.67-45.61,0-57.44l-126.88-63.44C722.43,305.84,711.79,305.84,702.75,310.36z"/>
	<path class="st24" d="M702.64,310.81l-192.17,96.09c-23.63,11.81-23.63,45.53,0,57.35l126.21,63.1c9.03,4.51,19.65,4.51,28.67,0
		l192.17-96.09c23.63-11.81,23.63-45.53,0-57.35l-126.21-63.1C722.29,306.3,711.67,306.3,702.64,310.81z"/>
	<path class="st25" d="M702.54,311.26L511.3,406.87c-23.59,11.8-23.59,45.46,0,57.26l125.53,62.77c9.01,4.51,19.62,4.51,28.63,0
		l191.24-95.62c23.59-11.8,23.59-45.46,0-57.26l-125.53-62.77C722.15,306.75,711.55,306.75,702.54,311.26z"/>
	<path class="st26" d="M702.43,311.7l-190.3,95.15c-23.55,11.78-23.55,45.39,0,57.17l124.86,62.43c9,4.5,19.59,4.5,28.58,0
		l190.3-95.15c23.55-11.78,23.55-45.39,0-57.17L731.01,311.7C722.01,307.21,711.42,307.21,702.43,311.7z"/>
	<path class="st27" d="M702.32,312.15l-189.36,94.68c-23.52,11.76-23.52,45.32,0,57.07L637.14,526c8.98,4.49,19.55,4.49,28.54,0
		l189.36-94.68c23.52-11.76,23.52-45.32,0-57.07l-124.19-62.09C721.87,307.66,711.3,307.66,702.32,312.15z"/>
	<path class="st28" d="M702.21,312.6l-188.43,94.21c-23.48,11.74-23.48,45.24,0,56.98l123.51,61.76c8.97,4.48,19.52,4.48,28.49,0
		l188.43-94.21c23.48-11.74,23.48-45.24,0-56.98L730.7,312.6C721.74,308.12,711.18,308.12,702.21,312.6z"/>
	<path class="st29" d="M702.1,313.05l-187.49,93.75c-23.44,11.72-23.44,45.17,0,56.89l122.84,61.42c8.95,4.48,19.49,4.48,28.45,0
		l187.49-93.75c23.44-11.72,23.44-45.17,0-56.89l-122.84-61.42C721.6,308.57,711.06,308.57,702.1,313.05z"/>
	<path class="st30" d="M701.99,313.5l-186.56,93.28c-23.4,11.7-23.4,45.1,0,56.8l122.17,61.08c8.94,4.47,19.46,4.47,28.4,0
		l186.56-93.28c23.4-11.7,23.4-45.1,0-56.8L730.4,313.5C721.46,309.03,710.93,309.03,701.99,313.5z"/>
	<path class="st31" d="M701.89,313.94l-185.62,92.81c-23.37,11.68-23.37,45.03,0,56.71l121.5,60.75c8.92,4.46,19.43,4.46,28.35,0
		l185.62-92.81c23.37-11.68,23.37-45.03,0-56.71l-121.5-60.75C721.32,309.48,710.81,309.48,701.89,313.94z"/>
	<path class="st32" d="M701.78,314.39l-184.69,92.34c-23.33,11.66-23.33,44.95,0,56.62l120.82,60.41c8.91,4.46,19.4,4.46,28.31,0
		l184.69-92.34c23.33-11.66,23.33-44.95,0-56.62l-120.82-60.41C721.18,309.94,710.69,309.94,701.78,314.39z"/>
	<path class="st33" d="M701.67,314.84l-183.75,91.88c-23.29,11.65-23.29,44.88,0,56.53l120.15,60.07c8.9,4.45,19.37,4.45,28.26,0
		l183.75-91.88c23.29-11.65,23.29-44.88,0-56.53l-120.15-60.07C721.04,310.39,710.57,310.39,701.67,314.84z"/>
	<path class="st34" d="M701.56,315.29l-182.82,91.41c-23.25,11.63-23.25,44.81,0,56.43l119.48,59.74c8.88,4.44,19.34,4.44,28.22,0
		l182.82-91.41c23.25-11.63,23.25-44.81,0-56.43l-119.48-59.74C720.9,310.85,710.44,310.85,701.56,315.29z"/>
	<path class="st35" d="M701.45,315.73l-181.88,90.94c-23.21,11.61-23.21,44.74,0,56.34l118.8,59.4c8.87,4.43,19.3,4.43,28.17,0
		l181.88-90.94c23.21-11.61,23.21-44.74,0-56.34l-118.8-59.4C720.76,311.3,710.32,311.3,701.45,315.73z"/>
	<path class="st36" d="M701.34,316.18L520.4,406.66c-23.18,11.59-23.18,44.66,0,56.25l118.13,59.07c8.85,4.43,19.27,4.43,28.13,0
		L847.6,431.5c23.18-11.59,23.18-44.66,0-56.25l-118.13-59.07C720.62,311.76,710.2,311.76,701.34,316.18z"/>
	<path class="st37" d="M701.24,316.63l-180.01,90.01c-23.14,11.57-23.14,44.59,0,56.16l117.46,58.73c8.84,4.42,19.24,4.42,28.08,0
		l180.01-90.01c23.14-11.57,23.14-44.59,0-56.16l-117.46-58.73C720.48,312.21,710.07,312.21,701.24,316.63z"/>
	<path class="st38" d="M701.13,317.08l-179.08,89.54c-23.1,11.55-23.1,44.52,0,56.07l116.78,58.39c8.82,4.41,19.21,4.41,28.03,0
		l179.08-89.54c23.1-11.55,23.1-44.52,0-56.07l-116.78-58.39C720.34,312.67,709.95,312.67,701.13,317.08z"/>
	<path class="st39" d="M701.02,317.53L522.88,406.6c-23.06,11.53-23.06,44.45,0,55.98l116.11,58.06c8.81,4.4,19.18,4.4,27.99,0
		l178.14-89.07c23.06-11.53,23.06-44.45,0-55.98l-116.11-58.06C720.2,313.12,709.83,313.12,701.02,317.53z"/>
	<path class="st40" d="M700.91,317.97l-177.2,88.6c-23.03,11.51-23.03,44.37,0,55.89l115.44,57.72c8.8,4.4,19.15,4.4,27.94,0
		l177.2-88.6c23.03-11.51,23.03-44.37,0-55.89l-115.44-57.72C720.06,313.58,709.71,313.58,700.91,317.97z"/>
	<path class="st41" d="M700.8,318.42l-176.27,88.13c-22.99,11.49-22.99,44.3,0,55.8l114.77,57.38c8.78,4.39,19.12,4.39,27.9,0
		l176.27-88.13c22.99-11.49,22.99-44.3,0-55.8L728.7,318.42C719.92,314.03,709.58,314.03,700.8,318.42z"/>
	<path class="st42" d="M700.69,318.87l-175.33,87.67c-22.95,11.48-22.95,44.23,0,55.7l114.09,57.05c8.77,4.38,19.09,4.38,27.85,0
		l175.33-87.67c22.95-11.48,22.95-44.23,0-55.7l-114.09-57.05C719.78,314.49,709.46,314.49,700.69,318.87z"/>
	<path class="st43" d="M700.59,319.32l-174.4,87.2c-22.91,11.46-22.91,44.16,0,55.61l113.42,56.71c8.75,4.38,19.05,4.38,27.81,0
		l174.4-87.2c22.91-11.46,22.91-44.16,0-55.61l-113.42-56.71C719.64,314.94,709.34,314.94,700.59,319.32z"/>
	<path class="st44" d="M700.48,319.76L527.02,406.5c-22.88,11.44-22.88,44.08,0,55.52l112.75,56.37c8.74,4.37,19.02,4.37,27.76,0
		l173.46-86.73c22.88-11.44,22.88-44.08,0-55.52l-112.75-56.37C719.5,315.4,709.22,315.4,700.48,319.76z"/>
	<path class="st45" d="M700.37,320.21l-172.53,86.26c-22.84,11.42-22.84,44.01,0,55.43l112.07,56.04c8.72,4.36,18.99,4.36,27.71,0
		l172.53-86.26c22.84-11.42,22.84-44.01,0-55.43l-112.07-56.04C719.36,315.85,709.09,315.85,700.37,320.21z"/>
	<path class="st46" d="M700.26,320.66l-171.59,85.8c-22.8,11.4-22.8,43.94,0,55.34l111.4,55.7c8.71,4.35,18.96,4.35,27.67,0
		l171.59-85.8c22.8-11.4,22.8-43.94,0-55.34l-111.4-55.7C719.22,316.31,708.97,316.31,700.26,320.66z"/>
	<path class="st47" d="M700.15,321.11L529.5,406.44c-22.76,11.38-22.76,43.87,0,55.25l110.73,55.36c8.69,4.35,18.93,4.35,27.62,0
		l170.66-85.33c22.76-11.38,22.76-43.87,0-55.25l-110.73-55.36C719.08,316.76,708.85,316.76,700.15,321.11z"/>
	<path class="st48" d="M700.04,321.56l-169.72,84.86c-22.73,11.36-22.73,43.79,0,55.16l110.05,55.03c8.68,4.34,18.9,4.34,27.58,0
		l169.72-84.86c22.73-11.36,22.73-43.79,0-55.16l-110.05-55.03C718.94,317.22,708.72,317.22,700.04,321.56z"/>
	<path class="st49" d="M699.94,322L531.15,406.4c-22.69,11.34-22.69,43.72,0,55.06l109.38,54.69c8.67,4.33,18.87,4.33,27.53,0
		l168.79-84.39c22.69-11.34,22.69-43.72,0-55.06L727.47,322C718.8,317.67,708.6,317.67,699.94,322z"/>
	<path class="st50" d="M699.83,322.45l-167.85,83.92c-22.65,11.32-22.65,43.65,0,54.97l108.71,54.35c8.65,4.33,18.83,4.33,27.49,0
		l167.85-83.92c22.65-11.32,22.65-43.65,0-54.97l-108.71-54.35C718.66,318.13,708.48,318.13,699.83,322.45z"/>
	<path class="st51" d="M699.72,322.9L532.8,406.36c-22.61,11.31-22.61,43.57,0,54.88l108.04,54.02c8.64,4.32,18.8,4.32,27.44,0
		L835.2,431.8c22.61-11.31,22.61-43.57,0-54.88L727.16,322.9C718.52,318.58,708.36,318.58,699.72,322.9z"/>
	<path class="st52" d="M699.61,323.35l-165.98,82.99c-22.57,11.29-22.57,43.5,0,54.79l107.36,53.68c8.62,4.31,18.77,4.31,27.39,0
		l165.98-82.99c22.57-11.29,22.57-43.5,0-54.79l-107.36-53.68C718.38,319.04,708.23,319.04,699.61,323.35z"/>
	<path class="st53" d="M699.5,323.79l-165.04,82.52c-22.54,11.27-22.54,43.43,0,54.7l106.69,53.34c8.61,4.3,18.74,4.3,27.35,0
		l165.04-82.52c22.54-11.27,22.54-43.43,0-54.7l-106.69-53.34C718.24,319.49,708.11,319.49,699.5,323.79z"/>
	<path class="st54" d="M699.39,324.24L535.29,406.3c-22.5,11.25-22.5,43.36,0,54.61l106.02,53.01c8.59,4.3,18.71,4.3,27.3,0
		l164.11-82.05c22.5-11.25,22.5-43.36,0-54.61L726.7,324.24C718.1,319.95,707.99,319.95,699.39,324.24z"/>
	<path class="st55" d="M699.29,324.69l-163.17,81.59c-22.46,11.23-22.46,43.28,0,54.52l105.34,52.67c8.58,4.29,18.68,4.29,27.26,0
		l163.17-81.59c22.46-11.23,22.46-43.28,0-54.52l-105.34-52.67C717.96,320.4,707.87,320.4,699.29,324.69z"/>
	<path class="st56" d="M699.18,325.14l-162.24,81.12c-22.42,11.21-22.42,43.21,0,54.42l104.67,52.34c8.57,4.28,18.65,4.28,27.21,0
		l162.24-81.12c22.42-11.21,22.42-43.21,0-54.42l-104.67-52.34C717.82,320.86,707.74,320.86,699.18,325.14z"/>
	<path class="st57" d="M699.07,325.59l-161.3,80.65c-22.39,11.19-22.39,43.14,0,54.33l104,52c8.55,4.28,18.62,4.28,27.17,0
		l161.3-80.65c22.39-11.19,22.39-43.14,0-54.33l-104-52C717.68,321.31,707.62,321.31,699.07,325.59z"/>
	<path class="st58" d="M698.96,326.03l-160.37,80.18c-22.35,11.17-22.35,43.07,0,54.24l103.32,51.66c8.54,4.27,18.58,4.27,27.12,0
		l160.37-80.18c22.35-11.17,22.35-43.07,0-54.24l-103.32-51.66C717.54,321.77,707.5,321.77,698.96,326.03z"/>
	<path class="st59" d="M698.85,326.48L539.42,406.2c-22.31,11.16-22.31,42.99,0,54.15l102.65,51.33c8.52,4.26,18.55,4.26,27.07,0
		l159.43-79.72c22.31-11.16,22.31-42.99,0-54.15l-102.65-51.33C717.41,322.22,707.37,322.22,698.85,326.48z"/>
	<path class="st60" d="M698.74,326.93l-158.5,79.25c-22.27,11.14-22.27,42.92,0,54.06l101.98,50.99c8.51,4.25,18.52,4.25,27.03,0
		l158.5-79.25c22.27-11.14,22.27-42.92,0-54.06l-101.98-50.99C717.27,322.68,707.25,322.68,698.74,326.93z"/>
	<path class="st61" d="M698.64,327.38l-157.56,78.78c-22.24,11.12-22.24,42.85,0,53.97l101.31,50.65c8.49,4.25,18.49,4.25,26.98,0
		L826.92,432c22.24-11.12,22.24-42.85,0-53.97l-101.31-50.65C717.13,323.13,707.13,323.13,698.64,327.38z"/>
	<path class="st62" d="M698.53,327.83L541.9,406.14c-22.2,11.1-22.2,42.78,0,53.88l100.63,50.32c8.48,4.24,18.46,4.24,26.94,0
		l156.62-78.31c22.2-11.1,22.2-42.78,0-53.88l-100.63-50.32C716.99,323.59,707.01,323.59,698.53,327.83z"/>
	<path class="st63" d="M698.42,328.27l-155.69,77.84c-22.16,11.08-22.16,42.7,0,53.78l99.96,49.98c8.46,4.23,18.43,4.23,26.89,0
		l155.69-77.84c22.16-11.08,22.16-42.7,0-53.78l-99.96-49.98C716.85,324.04,706.88,324.04,698.42,328.27z"/>
	<path class="st64" d="M698.31,328.72L543.56,406.1c-22.12,11.06-22.12,42.63,0,53.69l99.29,49.64c8.45,4.23,18.4,4.23,26.85,0
		l154.75-77.38c22.12-11.06,22.12-42.63,0-53.69l-99.29-49.64C716.71,324.5,706.76,324.5,698.31,328.72z"/>
	<path class="st65" d="M698.2,329.17l-153.82,76.91c-22.09,11.04-22.09,42.56,0,53.6L643,508.99c8.44,4.22,18.37,4.22,26.8,0
		l153.82-76.91c22.09-11.04,22.09-42.56,0-53.6L725,329.17C716.57,324.95,706.64,324.95,698.2,329.17z"/>
	<path class="st66" d="M698.09,329.62l-152.88,76.44c-22.05,11.02-22.05,42.49,0,53.51l97.94,48.97c8.42,4.21,18.33,4.21,26.76,0
		l152.88-76.44c22.05-11.02,22.05-42.49,0-53.51l-97.94-48.97C716.43,325.41,706.52,325.41,698.09,329.62z"/>
	<path class="st67" d="M697.99,330.06l-151.95,75.97c-22.01,11-22.01,42.41,0,53.42l97.27,48.63c8.41,4.2,18.3,4.2,26.71,0
		l151.95-75.97c22.01-11,22.01-42.41,0-53.42l-97.27-48.63C716.29,325.86,706.39,325.86,697.99,330.06z"/>
	<path class="st68" d="M697.88,330.51l-151.01,75.51c-21.97,10.99-21.97,42.34,0,53.33l96.59,48.3c8.39,4.2,18.27,4.2,26.66,0
		l151.01-75.51c21.97-10.99,21.97-42.34,0-53.33l-96.59-48.3C716.15,326.32,706.27,326.32,697.88,330.51z"/>
	<path class="st69" d="M697.77,330.96L547.69,406c-21.93,10.97-21.93,42.27,0,53.24l95.92,47.96c8.38,4.19,18.24,4.19,26.62,0
		l150.08-75.04c21.93-10.97,21.93-42.27,0-53.24l-95.92-47.96C716.01,326.77,706.15,326.77,697.77,330.96z"/>
	<path class="st70" d="M697.66,331.41l-149.14,74.57c-21.9,10.95-21.9,42.2,0,53.14l95.25,47.62c8.36,4.18,18.21,4.18,26.57,0
		l149.14-74.57c21.9-10.95,21.9-42.2,0-53.14l-95.25-47.62C715.87,327.23,706.02,327.23,697.66,331.41z"/>
	<path class="st71" d="M697.55,331.86l-148.21,74.1c-21.86,10.93-21.86,42.12,0,53.05l94.58,47.29c8.35,4.17,18.18,4.17,26.53,0
		l148.21-74.1c21.86-10.93,21.86-42.12,0-53.05l-94.58-47.29C715.73,327.68,705.9,327.68,697.55,331.86z"/>
	<path class="st72" d="M697.44,332.3l-147.27,73.64c-21.82,10.91-21.82,42.05,0,52.96l93.9,46.95c8.34,4.17,18.15,4.17,26.48,0
		l147.27-73.64c21.82-10.91,21.82-42.05,0-52.96l-93.9-46.95C715.59,328.14,705.78,328.14,697.44,332.3z"/>
	<path class="st73" d="M697.34,332.75L551,405.92c-21.78,10.89-21.78,41.98,0,52.87l93.23,46.61c8.32,4.16,18.11,4.16,26.44,0
		L817,432.24c21.78-10.89,21.78-41.98,0-52.87l-93.23-46.61C715.45,328.59,705.66,328.59,697.34,332.75z"/>
	<path class="st74" d="M697.23,333.2l-145.4,72.7c-21.75,10.87-21.75,41.91,0,52.78l92.56,46.28c8.31,4.15,18.08,4.15,26.39,0
		l145.4-72.7c21.75-10.87,21.75-41.91,0-52.78l-92.56-46.28C715.31,329.05,705.53,329.05,697.23,333.2z"/>
	<path class="st75" d="M697.12,333.65l-144.46,72.23c-21.71,10.85-21.71,41.83,0,52.69l91.88,45.94c8.29,4.15,18.05,4.15,26.34,0
		l144.46-72.23c21.71-10.85,21.71-41.83,0-52.69l-91.88-45.94C715.17,329.5,705.41,329.5,697.12,333.65z"/>
	<path class="st76" d="M697.01,334.09l-143.53,71.76c-21.67,10.84-21.67,41.76,0,52.6l91.21,45.61c8.28,4.14,18.02,4.14,26.3,0
		l143.53-71.76c21.67-10.84,21.67-41.76,0-52.6l-91.21-45.61C715.03,329.96,705.29,329.96,697.01,334.09z"/>
	<path class="st77" d="M696.9,334.54l-142.59,71.3c-21.63,10.82-21.63,41.69,0,52.5l90.54,45.27c8.26,4.13,17.99,4.13,26.25,0
		l142.59-71.3c21.63-10.82,21.63-41.69,0-52.5l-90.54-45.27C714.89,330.41,705.16,330.41,696.9,334.54z"/>
	<path class="st78" d="M696.79,334.99l-141.66,70.83c-21.6,10.8-21.6,41.62,0,52.41L645,503.16c8.25,4.12,17.96,4.12,26.21,0
		l141.66-70.83c21.6-10.8,21.6-41.62,0-52.41L723,334.99C714.75,330.87,705.04,330.87,696.79,334.99z"/>
	<path class="st79" d="M696.69,335.44L555.96,405.8c-21.56,10.78-21.56,41.54,0,52.32l89.19,44.6c8.23,4.12,17.93,4.12,26.16,0
		l140.72-70.36c21.56-10.78,21.56-41.54,0-52.32l-89.19-44.6C714.61,331.32,704.92,331.32,696.69,335.44z"/>
	<path class="st80" d="M696.58,335.89l-139.79,69.89c-21.52,10.76-21.52,41.47,0,52.23l88.52,44.26c8.22,4.11,17.9,4.11,26.12,0
		l139.79-69.89c21.52-10.76,21.52-41.47,0-52.23l-88.52-44.26C714.47,331.78,704.8,331.78,696.58,335.89z"/>
	<path class="st81" d="M696.47,336.33l-138.85,69.43c-21.48,10.74-21.48,41.4,0,52.14l87.84,43.92c8.21,4.1,17.86,4.1,26.07,0
		l138.85-69.43c21.48-10.74,21.48-41.4,0-52.14l-87.84-43.92C714.33,332.23,704.67,332.23,696.47,336.33z"/>
	<path class="st82" d="M696.36,336.78l-137.92,68.96c-21.44,10.72-21.44,41.33,0,52.05l87.17,43.59c8.19,4.1,17.83,4.1,26.02,0
		l137.92-68.96c21.44-10.72,21.44-41.33,0-52.05l-87.17-43.59C714.19,332.69,704.55,332.69,696.36,336.78z"/>
	<path class="st83" d="M696.25,337.23l-136.98,68.49c-21.41,10.7-21.41,41.25,0,51.96l86.5,43.25c8.18,4.09,17.8,4.09,25.98,0
		l136.98-68.49c21.41-10.7,21.41-41.25,0-51.96l-86.5-43.25C714.05,333.14,704.43,333.14,696.25,337.23z"/>
	<path class="st84" d="M696.14,337.68L560.1,405.7c-21.37,10.68-21.37,41.18,0,51.86l85.83,42.91c8.16,4.08,17.77,4.08,25.93,0
		l136.05-68.02c21.37-10.68,21.37-41.18,0-51.86l-85.83-42.91C713.91,333.6,704.31,333.6,696.14,337.68z"/>
	<path class="st85" d="M696.03,338.12l-135.11,67.55c-21.33,10.67-21.33,41.11,0,51.77l85.15,42.58c8.15,4.07,17.74,4.07,25.89,0
		l135.11-67.55c21.33-10.67,21.33-41.11,0-51.77l-85.15-42.58C713.77,334.05,704.18,334.05,696.03,338.12z"/>
	<path class="st86" d="M695.93,338.57l-134.17,67.09c-21.29,10.65-21.29,41.04,0,51.68l84.48,42.24c8.13,4.07,17.71,4.07,25.84,0
		l134.17-67.09c21.29-10.65,21.29-41.04,0-51.68l-84.48-42.24C713.63,334.51,704.06,334.51,695.93,338.57z"/>
	<path class="st87" d="M695.82,339.02l-133.24,66.62c-21.26,10.63-21.26,40.96,0,51.59l83.81,41.9c8.12,4.06,17.68,4.06,25.8,0
		l133.24-66.62c21.26-10.63,21.26-40.96,0-51.59l-83.81-41.9C713.49,334.96,703.94,334.96,695.82,339.02z"/>
	<path class="st88" d="M695.71,339.47l-132.3,66.15c-21.22,10.61-21.22,40.89,0,51.5l83.13,41.57c8.1,4.05,17.64,4.05,25.75,0
		l132.3-66.15c21.22-10.61,21.22-40.89,0-51.5l-83.13-41.57C713.35,335.42,703.81,335.42,695.71,339.47z"/>
	<path class="st89" d="M695.6,339.92L564.23,405.6c-21.18,10.59-21.18,40.82,0,51.41l82.46,41.23c8.09,4.05,17.61,4.05,25.7,0
		l131.37-65.68c21.18-10.59,21.18-40.82,0-51.41l-82.46-41.23C713.21,335.87,703.69,335.87,695.6,339.92z"/>
	<path class="st90" d="M695.49,340.36l-130.43,65.22c-21.14,10.57-21.14,40.74,0,51.32l81.79,40.89c8.08,4.04,17.58,4.04,25.66,0
		l130.43-65.22c21.14-10.57,21.14-40.74,0-51.32l-81.79-40.89C713.08,336.33,703.57,336.33,695.49,340.36z"/>
</g>
<polygon class="st91" points="486,346.5 594,400.5 594,418.5 486,364.5 "/>
<path class="st92" d="M652.5,157.5c-22.5,108-40.5,108-220.5,198v27l288-144v-189C693,63,666.14,92.01,652.5,157.5z"/>
<path class="st93" d="M648,463.5c180-90,198-90,220.5-198c13.64-65.49,40.5-94.5,67.5-108l-216-108c-27,13.5-53.86,42.51-67.5,108
	c-22.5,108-40.5,108-220.5,198L648,463.5z"/>
<path class="st94" d="M671.33,100.84L432,220.5v135c180-90,198-90,220.5-198C657.32,134.36,663.8,115.79,671.33,100.84
	L671.33,100.84z"/>
<g>
	<path d="M46.26,227.94h15.52c6,0.04,10.51,2.62,13.51,7.73c1.07,1.72,1.75,3.52,2.04,5.4c0.22,1.88,0.33,5.14,0.33,9.77
		c0,4.92-0.17,8.35-0.52,10.3c-0.16,0.98-0.41,1.86-0.73,2.64c-0.35,0.75-0.76,1.54-1.25,2.36c-1.3,2.16-3.1,3.94-5.42,5.34
		c-2.29,1.51-5.1,2.26-8.43,2.26H46.26V227.94z M52.98,267.2h8.04c3.78,0,6.52-1.33,8.22-4c0.75-0.99,1.23-2.24,1.43-3.75
		c0.18-1.49,0.27-4.28,0.27-8.37c0-3.99-0.09-6.84-0.27-8.56c-0.24-1.72-0.82-3.12-1.74-4.19c-1.87-2.67-4.51-3.96-7.92-3.87h-8.04
		V267.2z"/>
	<path d="M84.65,257.4c0-3.44,0.27-6.08,0.82-7.93c0.57-1.8,1.44-3.32,2.62-4.56c0.87-1.08,2.09-2.05,3.65-2.91
		c1.54-0.81,3.52-1.24,5.93-1.28c2.49,0.04,4.51,0.47,6.05,1.29c1.52,0.86,2.7,1.83,3.53,2.92c1.25,1.24,2.14,2.75,2.67,4.55
		c0.51,1.84,0.76,4.48,0.76,7.92s-0.25,6.05-0.76,7.85c-0.53,1.8-1.42,3.36-2.68,4.68c-0.41,0.48-0.9,0.95-1.49,1.41
		c-0.53,0.52-1.21,0.97-2.04,1.35c-1.54,0.9-3.56,1.37-6.05,1.41c-2.41-0.04-4.39-0.51-5.93-1.41c-1.56-0.82-2.78-1.74-3.65-2.76
		c-1.18-1.32-2.05-2.88-2.62-4.68C84.92,263.45,84.65,260.83,84.65,257.4z M104.34,257.46c0-2.33-0.1-4.03-0.3-5.11
		c-0.2-1.03-0.62-1.93-1.25-2.71c-0.47-0.74-1.16-1.31-2.07-1.73c-0.87-0.44-1.89-0.66-3.05-0.66c-1.08,0-2.07,0.22-2.99,0.66
		c-0.87,0.42-1.58,1-2.13,1.73c-0.55,0.78-0.95,1.68-1.19,2.71c-0.24,1.07-0.37,2.75-0.37,5.04c0,2.27,0.12,3.93,0.37,4.98
		c0.24,1.07,0.64,2.02,1.19,2.84c0.55,0.63,1.26,1.19,2.13,1.67c0.92,0.46,1.91,0.69,2.99,0.69c1.16,0,2.18-0.23,3.05-0.69
		c0.92-0.48,1.61-1.04,2.07-1.67c0.63-0.82,1.05-1.77,1.25-2.84C104.24,261.33,104.34,259.69,104.34,257.46z"/>
	<path d="M136.81,250.89h-0.12l-6.6,22.84h-5.6l-10.1-32.6h6.72l6.05,22.87h0.12l7.18-22.87h4.59l7.18,22.87h0.12l6.02-22.87h6.72
		l-10.07,32.6h-5.63L136.81,250.89z"/>
	<path d="M164.84,241.13h6.34v3.46h0.12c2.09-2.58,4.82-3.86,8.21-3.86c2.61,0,5.01,0.95,7.17,2.86c2.15,1.93,3.27,4.75,3.38,8.48
		v21.67h-6.34v-19.44c0-2.29-0.59-4.03-1.76-5.22c-1.16-1.22-2.65-1.82-4.47-1.82s-3.33,0.61-4.5,1.82c-1.2,1.2-1.8,2.94-1.8,5.22
		v19.44h-6.34V241.13z"/>
	<path d="M217.82,250.89h-0.12l-6.6,22.84h-5.6l-10.1-32.6h6.72l6.05,22.87h0.12l7.18-22.87h4.59l7.18,22.87h0.12l6.02-22.87h6.72
		l-10.07,32.6h-5.63L217.82,250.89z"/>
	<path d="M250.61,259.91c0,2.62,0.73,4.61,2.19,5.97c1.36,1.38,3.15,2.07,5.36,2.07c2.58,0,4.88-1.06,6.91-3.17l4.6,4.05
		c-3.22,3.56-7.02,5.32-11.38,5.27c-1.66,0-3.29-0.25-4.87-0.75c-0.79-0.27-1.56-0.64-2.31-1.1c-0.79-0.4-1.53-0.89-2.22-1.48
		c-1.34-1.21-2.42-2.91-3.25-5.09c-0.91-2.09-1.37-4.82-1.37-8.17c0-3.22,0.4-5.9,1.19-8.04c0.79-2.18,1.8-3.89,3.04-5.15
		c1.26-1.28,2.67-2.2,4.23-2.76c1.54-0.57,3.06-0.85,4.56-0.85c3.61,0.04,6.66,1.27,9.15,3.68c2.53,2.45,3.82,5.82,3.86,10.12v5.4
		H250.61z M263.97,254.51c-0.08-2.55-0.74-4.47-1.98-5.78c-1.22-1.24-2.79-1.86-4.7-1.86s-3.48,0.62-4.7,1.86
		c-1.2,1.3-1.86,3.23-1.98,5.78H263.97z"/>
	<path d="M278.01,227.94h6.34v37.41c0,1.49,0.79,2.23,2.38,2.23h2.2v6.15h-2.83c-2.31,0-4.22-0.59-5.72-1.78
		c-1.58-1.21-2.37-3.24-2.37-6.1V227.94z"/>
	<path d="M294.59,227.94h6.34v37.41c0,1.49,0.79,2.23,2.38,2.23h2.2v6.15h-2.83c-2.31,0-4.22-0.59-5.72-1.78
		c-1.58-1.21-2.37-3.24-2.37-6.1V227.94z"/>
	<path d="M311.36,227.94h6.34v6.53h-6.34V227.94z M311.36,241.13h6.34v32.6h-6.34V241.13z"/>
	<path d="M326.6,241.13h6.34v3.46h0.12c2.09-2.58,4.82-3.86,8.21-3.86c2.61,0,5,0.95,7.17,2.86c2.15,1.93,3.27,4.75,3.37,8.48v21.67
		h-6.34v-19.44c0-2.29-0.59-4.03-1.77-5.22c-1.16-1.22-2.65-1.82-4.47-1.82s-3.33,0.61-4.5,1.82c-1.2,1.2-1.79,2.94-1.79,5.22v19.44
		h-6.34V241.13z"/>
	<path d="M378.9,270.33c-2.09,2.44-4.8,3.7-8.15,3.78c-2.05-0.04-3.75-0.49-5.11-1.35c-1.42-0.82-2.5-1.7-3.25-2.64
		c-0.83-1.07-1.43-2.38-1.79-3.93c-0.38-1.53-0.58-4.44-0.58-8.74c0-4.38,0.19-7.34,0.58-8.9c0.37-1.53,0.96-2.82,1.79-3.87
		c0.75-1.02,1.83-1.94,3.25-2.75c1.36-0.77,3.06-1.18,5.11-1.22c3.14,0,5.86,1.29,8.15,3.86v-3.46h6.34v31.82
		c-0.08,4.9-1.45,8.5-4.1,10.8c-2.67,2.37-5.87,3.55-9.6,3.55c-4.27-0.08-7.92-1.9-10.94-5.46l4.92-4.04
		c0.81,0.78,1.74,1.44,2.8,1.99c1.07,0.61,2.19,0.94,3.34,0.98c2.17,0,3.91-0.62,5.23-1.86c1.3-1.26,1.96-3.01,2.01-5.24V270.33z
		 M366.36,257.46c0,2.5,0.08,4.22,0.24,5.17c0.14,0.99,0.48,1.81,1,2.46c0.43,0.59,1.08,1.12,1.95,1.61
		c0.83,0.59,1.87,0.88,3.1,0.88c1.24,0,2.27-0.29,3.1-0.88c0.83-0.48,1.46-1.02,1.89-1.61c0.53-0.65,0.88-1.47,1.06-2.46
		c0.12-0.95,0.18-2.67,0.18-5.17c0-2.54-0.06-4.31-0.18-5.29c-0.18-0.99-0.54-1.79-1.06-2.4c-0.43-0.59-1.06-1.17-1.89-1.73
		c-0.83-0.48-1.87-0.75-3.1-0.79c-1.24,0.04-2.27,0.3-3.1,0.79c-0.87,0.57-1.52,1.15-1.95,1.73c-0.53,0.61-0.86,1.41-1,2.4
		C366.44,253.15,366.36,254.92,366.36,257.46z"/>
	<path d="M102.54,319.56c-3.59-4.44-5.38-9.21-5.38-14.34c0-5.13,1.79-9.9,5.38-14.3h1.37c-2.16,4.43-3.25,9.2-3.28,14.3
		c0.02,5.12,1.12,9.9,3.28,14.34H102.54z"/>
	<path d="M107.46,290.92h3.47l11,17.82h0.07v-17.82h3.68v25.07h-3.48l-10.98-17.82h-0.07v17.82h-3.68V290.92z"/>
	<path d="M131.34,312.41h3.47v3.57h-3.47V312.41z"/>
	<path d="M161.74,305.03h-9.63v10.95h-3.68v-25.07h3.68v10.75h9.63v-10.75h3.68v25.07h-3.68V305.03z"/>
	<path d="M173.55,308.42c0,1.43,0.4,2.52,1.2,3.27c0.74,0.76,1.72,1.14,2.93,1.14c1.41,0,2.67-0.58,3.78-1.74l2.52,2.22
		c-1.77,1.95-3.84,2.91-6.23,2.89c-0.91,0-1.8-0.14-2.66-0.41c-0.43-0.15-0.85-0.35-1.27-0.6c-0.43-0.22-0.84-0.49-1.21-0.81
		c-0.73-0.67-1.33-1.59-1.78-2.79c-0.5-1.15-0.75-2.64-0.75-4.47c0-1.76,0.22-3.23,0.65-4.4c0.43-1.19,0.99-2.13,1.66-2.82
		c0.69-0.7,1.46-1.2,2.31-1.51c0.84-0.31,1.68-0.46,2.5-0.46c1.98,0.02,3.65,0.69,5.01,2.01c1.39,1.34,2.09,3.19,2.11,5.54v2.95
		H173.55z M180.86,305.46c-0.04-1.39-0.41-2.45-1.09-3.16c-0.67-0.68-1.52-1.02-2.57-1.02c-1.04,0-1.9,0.34-2.57,1.02
		c-0.66,0.71-1.02,1.77-1.08,3.16H180.86z"/>
	<path d="M188.4,298.14h3.48v1.89h0.07c1.18-1.41,2.73-2.12,4.66-2.12c1.24,0.02,2.24,0.24,2.99,0.64c0.75,0.45,1.43,1.01,2.05,1.7
		c1.4-1.58,3.27-2.36,5.62-2.34c1.48,0,2.83,0.52,4.06,1.57c1.21,1.05,1.84,2.6,1.89,4.64v11.86h-3.47v-10.64
		c0-1.25-0.33-2.2-1-2.86c-0.66-0.67-1.52-1-2.57-1s-1.91,0.33-2.59,1c-0.69,0.65-1.03,1.61-1.03,2.86v10.64h-3.47v-10.64
		c0-1.25-0.33-2.2-1-2.86c-0.68-0.67-1.54-1-2.59-1c-1.05,0-1.91,0.33-2.57,1c-0.7,0.65-1.05,1.61-1.05,2.86v10.64h-3.47V298.14z"/>
	<path d="M218.65,290.92h3.47v3.57h-3.47V290.92z M218.65,298.14h3.47v17.85h-3.47V298.14z"/>
	<path d="M227.49,310.54c1.41,1.53,3.24,2.29,5.48,2.29c1,0,1.82-0.2,2.45-0.6s0.95-0.96,0.95-1.69c0-0.64-0.19-1.09-0.57-1.34
		c-0.39-0.26-0.91-0.41-1.55-0.43l-3.07-0.28c-1.46-0.14-2.64-0.64-3.55-1.51c-0.93-0.85-1.41-2.04-1.44-3.56
		c0.02-1.83,0.65-3.21,1.88-4.13c1.2-0.92,2.72-1.38,4.57-1.38c0.8,0,1.52,0.05,2.15,0.16c0.63,0.11,1.23,0.27,1.78,0.48
		c1.07,0.45,2.02,1.05,2.87,1.8l-2.15,2.59c-0.67-0.5-1.37-0.91-2.12-1.23c-0.73-0.29-1.58-0.43-2.54-0.43
		c-1.09,0-1.85,0.2-2.29,0.6c-0.46,0.4-0.68,0.92-0.68,1.55c-0.02,0.4,0.15,0.75,0.52,1.05c0.33,0.33,0.92,0.54,1.77,0.64l2.87,0.22
		c1.8,0.14,3.1,0.7,3.9,1.69c0.75,0.96,1.12,2.19,1.12,3.67c-0.02,1.73-0.71,3.07-2.05,4.01c-1.33,0.96-3.04,1.46-5.11,1.48
		c-2.82,0-5.36-1.07-7.61-3.2L227.49,310.54z"/>
	<path d="M243.89,298.14h3.47V300c1.15-1.33,2.64-2.02,4.46-2.08c2.12,0.06,3.67,0.84,4.64,2.34c0.48,0.56,0.8,1.3,0.98,2.22
		c0.17,0.91,0.25,2.44,0.25,4.61c0,2.11-0.08,3.62-0.25,4.54c-0.18,0.92-0.5,1.67-0.98,2.25c-0.48,0.69-1.1,1.24-1.88,1.65
		c-0.77,0.42-1.69,0.65-2.76,0.67c-0.89,0-1.68-0.2-2.38-0.6c-0.75-0.36-1.45-0.87-2.08-1.5v9.12h-3.47V298.14z M250.77,312.62
		c0.82,0,1.47-0.16,1.95-0.48c0.48-0.33,0.82-0.76,1.02-1.28c0.22-0.54,0.37-1.14,0.45-1.79c0.02-0.64,0.03-1.31,0.03-1.98
		c0-0.71-0.01-1.41-0.03-2.09c-0.08-0.68-0.23-1.28-0.45-1.79c-0.2-0.54-0.54-0.97-1.02-1.28c-0.48-0.29-1.13-0.43-1.95-0.43
		c-0.78,0-1.39,0.17-1.85,0.5c-0.48,0.33-0.83,0.77-1.05,1.31c-0.21,0.54-0.35,1.13-0.42,1.76c-0.07,0.67-0.1,1.34-0.1,2.02
		c0,0.63,0.03,1.27,0.1,1.9c0.07,0.67,0.21,1.27,0.42,1.81c0.22,0.54,0.57,0.98,1.05,1.31C249.38,312.44,250,312.62,250.77,312.62z"
		/>
	<path d="M262.17,290.92h3.47v9.11h0.07c1.14-1.41,2.64-2.12,4.49-2.12c1.43,0,2.74,0.52,3.93,1.57c1.18,1.05,1.79,2.6,1.85,4.64
		v11.86h-3.47v-10.64c0-1.25-0.32-2.2-0.97-2.86c-0.63-0.67-1.45-1-2.45-1c-1,0-1.82,0.33-2.46,1c-0.66,0.65-0.98,1.61-0.98,2.86
		v10.64h-3.47V290.92z"/>
	<path d="M283.69,308.42c0,1.43,0.4,2.52,1.2,3.27c0.74,0.76,1.72,1.14,2.93,1.14c1.41,0,2.67-0.58,3.78-1.74l2.52,2.22
		c-1.76,1.95-3.84,2.91-6.23,2.89c-0.91,0-1.8-0.14-2.66-0.41c-0.43-0.15-0.85-0.35-1.26-0.6c-0.43-0.22-0.84-0.49-1.22-0.81
		c-0.73-0.67-1.33-1.59-1.78-2.79c-0.5-1.15-0.75-2.64-0.75-4.47c0-1.76,0.22-3.23,0.65-4.4c0.43-1.19,0.99-2.13,1.66-2.82
		c0.69-0.7,1.46-1.2,2.31-1.51c0.84-0.31,1.67-0.46,2.5-0.46c1.97,0.02,3.65,0.69,5.01,2.01c1.39,1.34,2.09,3.19,2.11,5.54v2.95
		H283.69z M291,305.46c-0.04-1.39-0.41-2.45-1.08-3.16c-0.67-0.68-1.52-1.02-2.57-1.02c-1.05,0-1.9,0.34-2.57,1.02
		c-0.66,0.71-1.02,1.77-1.08,3.16H291z"/>
	<path d="M298.68,298.14h3.47v1.89h0.07c1.14-1.41,2.64-2.12,4.5-2.12c1.39,0.02,2.6,0.48,3.63,1.37l-2.53,3.1
		c-0.73-0.6-1.49-0.9-2.28-0.9c-0.89,0-1.65,0.3-2.28,0.89c-0.71,0.59-1.08,1.53-1.1,2.84v10.76h-3.47V298.14z"/>
	<path d="M314.36,308.42c0,1.43,0.4,2.52,1.2,3.27c0.74,0.76,1.72,1.14,2.93,1.14c1.41,0,2.67-0.58,3.78-1.74l2.52,2.22
		c-1.76,1.95-3.84,2.91-6.23,2.89c-0.91,0-1.8-0.14-2.66-0.41c-0.43-0.15-0.85-0.35-1.26-0.6c-0.43-0.22-0.84-0.49-1.22-0.81
		c-0.73-0.67-1.33-1.59-1.78-2.79c-0.5-1.15-0.75-2.64-0.75-4.47c0-1.76,0.22-3.23,0.65-4.4c0.43-1.19,0.99-2.13,1.66-2.82
		c0.69-0.7,1.46-1.2,2.31-1.51c0.84-0.31,1.67-0.46,2.5-0.46c1.97,0.02,3.65,0.69,5.01,2.01c1.39,1.34,2.09,3.19,2.11,5.54v2.95
		H314.36z M321.67,305.46c-0.04-1.39-0.41-2.45-1.08-3.16c-0.67-0.68-1.52-1.02-2.57-1.02c-1.05,0-1.9,0.34-2.57,1.02
		c-0.66,0.71-1.02,1.77-1.08,3.16H321.67z"/>
	<path d="M329.15,290.92c3.58,4.41,5.38,9.18,5.38,14.31c0,5.12-1.79,9.9-5.38,14.33h-1.37c2.13-4.43,3.22-9.21,3.27-14.33
		c-0.06-5.11-1.15-9.88-3.27-14.31H329.15z"/>
</g>
<polygon class="st95" points="432,382.5 648,490.5 648,463.5 432,355.5 "/>
<path class="st96" d="M868.5,265.5c-22.5,108-40.5,108-220.5,198v27l288-144v-189C909,171,882.14,200.01,868.5,265.5z"/>
<polygon class="st97" points="486,346.5 594,400.5 702,346.5 715.3,343.48 731.3,327.06 752.35,292.5 752.35,274.5 747.72,258.01 
	739.72,251.27 721.61,243.77 706.04,247.5 594,292.5 "/>
<g>
	<path class="st98" d="M702,238.5v18c24.85-12.43,45-2.36,45,22.5c0,24.85-20.15,55.08-45,67.5v18c34.79-17.4,63-59.71,63-94.51
		S736.79,221.1,702,238.5z"/>
	<polygon class="st98" points="702,346.5 594,400.5 594,418.5 702,364.5 	"/>
	<polygon class="st98" points="702,238.5 594,292.5 594,310.5 702,256.5 	"/>
</g>
<polygon class="st99" points="486,238.5 594,292.5 594,301.5 486,247.5 "/>
<g>
	<g>
		<polygon class="st97" points="621,387 657,405 477,405 477,315 513,333 		"/>
		<rect x="477" y="405" class="st98" width="180" height="18"/>
	</g>
	<polygon class="st97" points="522,328.5 513,333 621,387 630,382.5 	"/>
	<polygon class="st98" points="630,382.5 621,387 630,391.5 	"/>
</g>
<polygon class="st100" points="432,355.5 648,463.5 648,328.5 432,220.5 "/>
<path class="st101" d="M887.33,208.84L648,328.5v135c180-90,198-90,220.5-198C873.32,242.36,879.8,223.79,887.33,208.84
	L887.33,208.84z"/>
<polygon class="st102" points="671.33,100.83 887.33,208.84 648,328.5 432,220.5 "/>
<polygon class="st97" points="594,184.5 702,238.5 594,292.5 486,238.5 "/>
<path class="st97" d="M746.37,234.59L746.37,234.59l-107.79-53.9c-0.02-0.01-0.05-0.02-0.07-0.04l-0.13-0.07l-0.01,0
	c-11.39-5.6-27.06-4.75-44.37,3.91l108,54C719.31,229.84,734.98,228.99,746.37,234.59z"/>
<path class="st98" d="M702,238.5l-108,54v9l140.46-70.23C724.98,230.3,713.88,232.56,702,238.5z"/>
<path class="st98" d="M638.51,180.66l-0.13-0.07l-0.01,0c-3.57-1.76-7.57-2.88-11.9-3.32l108,54l0,0c4.34,0.45,8.33,1.57,11.91,3.32
	l0.01,0l-107.79-53.9C638.56,180.68,638.53,180.67,638.51,180.66z"/>
<g>
	<path d="M420.61,37.83h12.79v2.95h-9.76v5.91h8.33v2.78h-8.33v6.08h9.76v2.95h-12.79V37.83z"/>
	<path d="M436.51,37.83h2.86v12.86h0.06l5.48-6.9h3.43l-4.92,5.74l5.59,8.97h-3.6l-3.79-6.87l-2.25,2.64v4.24h-2.86V37.83z"/>
	<path d="M451.46,43.78h2.87v1.56h0.06c0.97-1.16,2.25-1.74,3.84-1.74c1.02,0.02,1.84,0.19,2.47,0.52c0.61,0.37,1.18,0.84,1.69,1.4
		c1.15-1.3,2.7-1.95,4.64-1.93c1.22,0,2.33,0.43,3.35,1.29c1,0.87,1.52,2.15,1.56,3.83v9.78h-2.86v-8.77c0-1.03-0.27-1.82-0.82-2.36
		c-0.55-0.55-1.25-0.82-2.12-0.82c-0.87,0-1.58,0.27-2.14,0.82c-0.57,0.54-0.85,1.33-0.85,2.36v8.77h-2.86v-8.77
		c0-1.03-0.27-1.82-0.82-2.36c-0.56-0.55-1.27-0.82-2.13-0.82s-1.57,0.27-2.12,0.82c-0.58,0.54-0.87,1.33-0.87,2.36v8.77h-2.86
		V43.78z"/>
	<path d="M483.8,57.2h-0.05c-0.27,0.5-0.68,0.87-1.24,1.11c-0.55,0.25-1.31,0.37-2.28,0.37c-1.59-0.02-2.82-0.45-3.68-1.3
		c-0.91-0.83-1.36-1.9-1.36-3.19c0-1.24,0.39-2.26,1.18-3.08c0.79-0.83,1.94-1.26,3.46-1.28h3.97v-1.55
		c0.02-1.3-0.96-1.93-2.92-1.89c-0.71,0-1.28,0.08-1.69,0.23c-0.43,0.18-0.77,0.48-1.02,0.91l-2.25-1.77
		c1.09-1.47,2.69-2.18,4.82-2.14c1.79-0.02,3.22,0.33,4.29,1.05c1.07,0.74,1.61,2,1.63,3.8V58.5h-2.86V57.2z M483.8,52.26h-3.44
		c-1.67,0.04-2.5,0.63-2.48,1.77c0,0.5,0.21,0.93,0.65,1.28c0.41,0.39,1.1,0.58,2.05,0.58c1.2,0.02,2.05-0.13,2.54-0.44
		c0.45-0.31,0.67-1.02,0.67-2.13V52.26z"/>
	<path d="M490.83,43.78h2.86v1.56h0.05c0.94-1.16,2.18-1.74,3.7-1.74c1.18,0,2.26,0.43,3.24,1.29c0.97,0.87,1.48,2.15,1.52,3.83
		v9.78h-2.86v-8.77c0-1.03-0.27-1.82-0.8-2.36c-0.52-0.55-1.2-0.82-2.02-0.82c-0.83,0-1.5,0.27-2.03,0.82
		c-0.54,0.54-0.81,1.33-0.81,2.36v8.77h-2.86V43.78z"/>
	<path d="M424.02,69.45h-5.49v-2.78h14.01v2.78h-5.49v17.89h-3.03V69.45z"/>
	<path d="M432.21,72.63h2.86v1.56h0.06c0.94-1.16,2.18-1.74,3.71-1.74c1.14,0.02,2.14,0.4,3,1.13l-2.09,2.56
		c-0.6-0.49-1.23-0.74-1.88-0.74c-0.73,0-1.36,0.25-1.88,0.74c-0.59,0.48-0.89,1.26-0.91,2.34v8.87h-2.86V72.63z"/>
	<path d="M450.47,86.04h-0.05c-0.27,0.5-0.68,0.87-1.24,1.11c-0.55,0.25-1.31,0.37-2.28,0.37c-1.59-0.02-2.82-0.45-3.68-1.3
		c-0.91-0.83-1.36-1.9-1.36-3.19c0-1.24,0.39-2.26,1.18-3.08c0.79-0.83,1.94-1.26,3.46-1.28h3.97v-1.55
		c0.02-1.3-0.96-1.93-2.92-1.89c-0.71,0-1.28,0.08-1.69,0.23c-0.43,0.18-0.77,0.48-1.02,0.91l-2.25-1.77
		c1.09-1.47,2.69-2.18,4.82-2.14c1.79-0.02,3.22,0.33,4.29,1.05c1.07,0.74,1.61,2,1.63,3.8v10.05h-2.86V86.04z M450.47,81.1h-3.44
		c-1.67,0.04-2.5,0.63-2.48,1.77c0,0.5,0.21,0.93,0.65,1.28c0.41,0.39,1.1,0.58,2.05,0.58c1.2,0.02,2.05-0.13,2.54-0.44
		c0.45-0.31,0.67-1.02,0.67-2.13V81.1z"/>
	<path d="M457.5,72.63h2.86v1.56h0.05c0.94-1.16,2.18-1.74,3.7-1.74c1.18,0,2.26,0.43,3.24,1.29c0.97,0.87,1.48,2.15,1.52,3.83v9.78
		h-2.86v-8.77c0-1.03-0.27-1.82-0.8-2.36c-0.52-0.55-1.2-0.82-2.02-0.82c-0.83,0-1.5,0.27-2.03,0.82c-0.54,0.54-0.81,1.33-0.81,2.36
		v8.77h-2.86V72.63z"/>
	<path d="M473.51,82.85c1.17,1.26,2.67,1.89,4.52,1.89c0.83,0,1.5-0.17,2.02-0.5c0.52-0.33,0.79-0.79,0.79-1.39
		c0-0.53-0.16-0.9-0.47-1.11c-0.32-0.22-0.75-0.34-1.28-0.35l-2.53-0.23c-1.2-0.11-2.18-0.53-2.93-1.25
		c-0.77-0.7-1.17-1.68-1.18-2.94c0.02-1.51,0.54-2.65,1.55-3.4c0.99-0.76,2.25-1.13,3.77-1.13c0.66,0,1.25,0.04,1.77,0.13
		c0.52,0.09,1.01,0.23,1.47,0.4c0.88,0.37,1.67,0.86,2.36,1.49l-1.78,2.14c-0.55-0.41-1.13-0.75-1.75-1.02
		c-0.61-0.24-1.3-0.36-2.09-0.36c-0.9,0-1.53,0.17-1.88,0.5c-0.38,0.33-0.56,0.76-0.56,1.28c-0.02,0.33,0.12,0.62,0.43,0.87
		c0.27,0.27,0.76,0.45,1.46,0.53l2.37,0.18c1.49,0.11,2.56,0.58,3.22,1.39c0.62,0.79,0.92,1.8,0.92,3.02
		c-0.02,1.43-0.58,2.53-1.69,3.31c-1.1,0.79-2.5,1.2-4.22,1.22c-2.33,0-4.42-0.88-6.28-2.64L473.51,82.85z"/>
	<path d="M487.03,72.63h2.86v1.53c0.95-1.1,2.18-1.67,3.68-1.72c1.75,0.05,3.02,0.69,3.83,1.93c0.39,0.46,0.66,1.07,0.81,1.83
		c0.14,0.75,0.21,2.01,0.21,3.8c0,1.74-0.07,2.99-0.21,3.74c-0.15,0.76-0.42,1.38-0.81,1.86c-0.39,0.57-0.91,1.02-1.55,1.36
		c-0.63,0.35-1.39,0.53-2.28,0.55c-0.73,0-1.39-0.16-1.96-0.49c-0.62-0.3-1.19-0.71-1.71-1.24v7.52h-2.86V72.63z M492.71,84.56
		c0.68,0,1.21-0.13,1.61-0.4c0.39-0.27,0.67-0.63,0.84-1.05c0.18-0.45,0.31-0.94,0.37-1.48c0.02-0.53,0.03-1.08,0.03-1.64
		c0-0.59-0.01-1.16-0.03-1.72c-0.06-0.56-0.19-1.05-0.37-1.48c-0.17-0.45-0.44-0.8-0.84-1.05c-0.39-0.24-0.93-0.36-1.61-0.36
		c-0.64,0-1.15,0.14-1.52,0.41c-0.39,0.27-0.68,0.64-0.87,1.08c-0.17,0.45-0.29,0.93-0.34,1.45c-0.05,0.55-0.08,1.1-0.08,1.66
		c0,0.52,0.03,1.04,0.08,1.56c0.06,0.55,0.17,1.05,0.34,1.49c0.18,0.45,0.47,0.81,0.87,1.08C491.56,84.42,492.07,84.56,492.71,84.56
		z"/>
	<path d="M501.39,79.97c0-1.55,0.12-2.75,0.37-3.58c0.26-0.81,0.65-1.5,1.18-2.06c0.39-0.49,0.94-0.93,1.65-1.31
		c0.7-0.37,1.59-0.56,2.68-0.58c1.13,0.02,2.04,0.21,2.73,0.58c0.69,0.39,1.22,0.83,1.59,1.32c0.57,0.56,0.97,1.24,1.21,2.06
		c0.23,0.83,0.34,2.02,0.34,3.57c0,1.55-0.11,2.73-0.34,3.54c-0.24,0.81-0.64,1.52-1.21,2.11c-0.18,0.22-0.41,0.43-0.67,0.64
		c-0.24,0.24-0.54,0.44-0.92,0.61c-0.7,0.41-1.61,0.62-2.73,0.64c-1.09-0.02-1.98-0.23-2.68-0.64c-0.7-0.37-1.25-0.78-1.65-1.25
		c-0.53-0.6-0.92-1.3-1.18-2.11C501.52,82.7,501.39,81.52,501.39,79.97z M510.28,80c0-1.05-0.05-1.82-0.14-2.3
		c-0.09-0.46-0.28-0.87-0.56-1.22c-0.21-0.33-0.52-0.59-0.94-0.78c-0.4-0.2-0.85-0.3-1.38-0.3c-0.49,0-0.94,0.1-1.35,0.3
		c-0.39,0.19-0.72,0.45-0.96,0.78c-0.25,0.35-0.43,0.76-0.54,1.22c-0.11,0.48-0.17,1.24-0.17,2.28c0,1.02,0.05,1.77,0.17,2.25
		c0.11,0.48,0.29,0.91,0.54,1.28c0.25,0.28,0.57,0.54,0.96,0.75c0.41,0.21,0.86,0.31,1.35,0.31c0.52,0,0.98-0.1,1.38-0.31
		c0.41-0.22,0.72-0.47,0.94-0.75c0.28-0.37,0.47-0.8,0.56-1.28C510.24,81.74,510.28,81,510.28,80z"/>
	<path d="M516.62,72.63h2.86v1.56h0.06c0.94-1.16,2.18-1.74,3.71-1.74c1.14,0.02,2.14,0.4,3,1.13l-2.09,2.56
		c-0.6-0.49-1.23-0.74-1.88-0.74c-0.73,0-1.36,0.25-1.88,0.74c-0.59,0.48-0.89,1.26-0.91,2.34v8.87h-2.86V72.63z"/>
	<path d="M528.09,68.15h2.86v4.48h2.09v2.27h-2.09v8.58c-0.02,0.75,0.32,1.11,1.02,1.09h1.07v2.78h-1.49
		c-1.01,0-1.83-0.32-2.47-0.96c-0.66-0.61-0.99-1.5-0.99-2.66v-8.82h-1.44v-2.27h1.44V68.15z"/>
</g>
<g>
	<g>
		<polygon class="st97" points="414,274.5 504,283.5 522,328.5 594,292.5 486,238.5 		"/>
	</g>
	<polygon class="st98" points="522,328.5 522,346.5 594,310.5 594,292.5 	"/>
	<polygon class="st98" points="414,274.5 414,292.5 504,301.5 504,283.5 	"/>
	<polygon class="st98" points="504,283.5 504,301.5 522,346.5 522,328.5 	"/>
</g>
<g>
	<g>
		<g>
			<path class="st98" d="M513.04,272.19l12.57-6.28c4.9-2.41,10.63-3.19,17.2-2.34c2.26,0.26,4.27,0.71,6.02,1.36
				c1.71,0.67,4.43,1.95,8.18,3.82c3.98,1.99,6.62,3.45,7.92,4.38c0.67,0.46,1.18,0.92,1.54,1.36c0.33,0.44,0.63,0.93,0.9,1.46
				c0.7,1.4,0.67,2.85-0.06,4.35c-0.64,1.54-2.3,2.98-4.99,4.33l-12.2,6.1L513.04,272.19z M550.27,285.37l6.51-3.26
				c3.06-1.53,4.2-3.18,3.42-4.95c-0.19-0.7-0.81-1.4-1.87-2.1c-1.06-0.68-3.24-1.84-6.56-3.5c-3.23-1.61-5.61-2.73-7.15-3.35
				c-1.59-0.6-3.19-0.93-4.79-0.99c-3.67-0.32-6.85,0.22-9.55,1.64l-6.51,3.26L550.27,285.37z"/>
			<path class="st98" d="M563.17,265.67c-4.32-2.16-7.08-3.66-8.29-4.52c-1.2-0.86-1.98-1.65-2.34-2.37
				c-0.84-1.29-0.96-2.75-0.38-4.37c0.54-1.62,2.2-3.14,4.99-4.57c2.89-1.41,5.96-2.25,9.22-2.53c3.23-0.27,6.12-0.19,8.66,0.25
				c1.5,0.15,3.1,0.53,4.79,1.14c1.67,0.62,4.66,2.01,8.97,4.16c4.24,2.12,7,3.61,8.28,4.46c1.26,0.86,2.04,1.67,2.33,2.42
				c0.88,1.27,1.02,2.71,0.44,4.31c-0.55,1.63-2.22,3.18-5,4.64c-2.89,1.38-5.96,2.2-9.2,2.46c-3.23,0.31-6.13,0.25-8.71-0.17
				c-0.82-0.15-1.59-0.3-2.32-0.44c-0.72-0.16-1.55-0.41-2.48-0.75C570.39,269.16,567.4,267.79,563.17,265.67z M568.6,262.95
				c3.65,1.83,6.26,3,7.81,3.51c1.52,0.53,3.04,0.82,4.54,0.86c1.34,0.09,2.72,0.03,4.13-0.2c1.48-0.18,2.86-0.59,4.15-1.23
				c1.3-0.65,2.15-1.35,2.54-2.11c0.43-0.69,0.53-1.36,0.31-2.02c-0.09-0.75-0.65-1.52-1.68-2.3c-1.04-0.77-3.39-2.07-7.05-3.89
				c-3.65-1.83-6.26-3.01-7.84-3.55c-1.52-0.5-3.03-0.77-4.54-0.81c-1.31-0.11-2.67-0.07-4.08,0.13c-1.45,0.23-2.84,0.66-4.17,1.3
				c-1.25,0.66-2.09,1.34-2.52,2.05c-0.43,0.72-0.55,1.42-0.36,2.09c0.09,0.75,0.65,1.5,1.68,2.25
				C562.59,259.82,564.95,261.13,568.6,262.95z"/>
			<path class="st98" d="M573.44,242l5.74-2.87l32,10.36l0.1-0.05l-19.39-16.66l3.94-1.97l33.3,9.71l0.1-0.05l-20.69-16.01
				l5.74-2.87l28.11,23.02l-4.56,2.28l-33.59-9.95l-0.1,0.05l19.87,16.81l-4.53,2.27L573.44,242z"/>
			<path class="st98" d="M620,218.72l5.13-2.56l42.62,5.05l0.1-0.05l-26.36-13.18l5.44-2.72L684,223.79l-5.15,2.58l-42.6-5.06
				l-0.1,0.05l26.36,13.18l-5.44,2.72L620,218.72z"/>
		</g>
	</g>
	<g>
		<path class="st98" d="M494.06,256.58l2.34-1.17l13.06,4.23l0.04-0.02l-7.91-6.8l1.61-0.8l13.59,3.96l0.04-0.02l-8.45-6.54
			l2.34-1.17l11.47,9.4l-1.86,0.93l-13.71-4.06l-0.04,0.02l8.11,6.86l-1.85,0.92L494.06,256.58z"/>
		<path class="st98" d="M531.54,249.59l-5.56,2.78l2.26,2.26l-2.35,1.18l-9.81-10.23l1.86-0.93l20.46,4.9l-2.34,1.17L531.54,249.59z
			 M528.88,248.89l-8.74-2.25l-0.04,0.02l4.5,4.37L528.88,248.89z"/>
		<path class="st98" d="M525.25,240.99l5.73-2.86c1.22-0.61,2.55-0.94,3.99-1c1.68-0.09,3.24,0.21,4.68,0.89
			c2.03,1.04,2.48,2.21,1.36,3.51l10.11,1.66l-2.64,1.32l-9.5-1.72l-2.84,1.42l6.47,3.23l-2.22,1.11L525.25,240.99z M534.1,243.2
			l3.37-1.68c0.82-0.42,1.19-0.86,1.12-1.31c-0.04-0.43-0.39-0.81-1.05-1.14c-0.8-0.39-1.62-0.55-2.45-0.49
			c-0.69,0.03-1.39,0.23-2.1,0.58l-3.49,1.74L534.1,243.2z"/>
		<path class="st98" d="M538.21,234.51l2.09-1.05l14.07,2.83l-5.74-6.99l2.1-1.05l15.13,7.57l-2.22,1.11l-9.44-4.72l-0.05,0.02
			l4.2,5.17l-1.85,0.93l-10.34-2.1l-0.04,0.02l9.44,4.72l-2.22,1.11L538.21,234.51z"/>
		<path class="st98" d="M558.1,224.56l2.34-1.17l13.06,4.23l0.04-0.02l-7.91-6.8l1.61-0.8l13.59,3.96l0.04-0.02l-8.45-6.54
			l2.34-1.17l11.47,9.4l-1.86,0.93l-13.71-4.06l-0.04,0.02l8.11,6.86l-1.85,0.92L558.1,224.56z"/>
		<path class="st98" d="M595.58,217.57l-5.56,2.78l2.26,2.26l-2.35,1.18l-9.81-10.23l1.86-0.93l20.46,4.9l-2.34,1.17L595.58,217.57z
			 M592.91,216.87l-8.74-2.25l-0.04,0.02l4.5,4.37L592.91,216.87z"/>
		<path class="st98" d="M592.23,209.53l-4.02,2.01l-2.03-1.02l10.26-5.13l2.03,1.02l-4.02,2.01l13.1,6.55l-2.22,1.11L592.23,209.53z
			"/>
		<path class="st98" d="M598.34,204.44l9.36-4.68l2.16,1.08l-7.15,3.57l4.33,2.17l6.1-3.05l2.03,1.02l-6.1,3.05l4.45,2.23l7.15-3.57
			l2.16,1.08l-9.36,4.68L598.34,204.44z"/>
		<path class="st98" d="M610.16,198.53l5.73-2.86c1.22-0.61,2.55-0.94,3.99-1c1.68-0.09,3.24,0.21,4.68,0.89
			c2.03,1.04,2.48,2.21,1.36,3.51l10.11,1.66l-2.64,1.32l-9.5-1.72l-2.84,1.42l6.47,3.23l-2.22,1.11L610.16,198.53z M619.01,200.74
			l3.37-1.68c0.82-0.42,1.19-0.86,1.12-1.31c-0.04-0.43-0.39-0.81-1.05-1.14c-0.8-0.39-1.62-0.55-2.45-0.49
			c-0.69,0.03-1.39,0.23-2.1,0.58l-3.49,1.74L619.01,200.74z"/>
	</g>
</g>
<polyline class="st107" points="414,292.5 504,301.5 522,346.5 594,310.5 594,301.5 603,306 "/>
<g>
	<polygon class="st105" points="864,225 864,252 846,261 846,234 	"/>
	<polygon class="st106" points="756,279 756,225 864,225 846,234 900,261 828,297 774,270 	"/>
	<polygon class="st105" points="900,261 900,279 828,315 828,297 	"/>
	<polygon class="st105" points="828,315 774,288 774,270 828,297 	"/>
	<polygon class="st105" points="774,288 756,297 756,279 774,270 	"/>
</g>
<g>
	<path d="M808.83,343.31l7.18-3.59l40.04,12.96l0.12-0.06l-24.26-20.85l4.93-2.47l41.68,12.15l0.12-0.06l-25.9-20.04l7.18-3.59
		l35.18,28.81l-5.7,2.85l-42.03-12.45l-0.12,0.06l24.86,21.03l-5.67,2.84L808.83,343.31z"/>
	<path d="M867.1,314.18l6.8-3.4l46.4,23.2l-6.8,3.4L867.1,314.18z"/>
	<path d="M883.9,305.78l6.41-3.21l53.34,6.32l0.12-0.06l-32.99-16.49l6.8-3.4l46.4,23.2l-6.44,3.22l-53.31-6.33l-0.12,0.06
		l32.98,16.49l-6.8,3.4L883.9,305.78z"/>
	<path d="M928.48,283.49l15.73-7.86c6.13-3.02,13.3-4,21.52-2.93c2.83,0.33,5.34,0.89,7.53,1.7c2.14,0.84,5.55,2.43,10.24,4.78
		c4.99,2.49,8.29,4.32,9.91,5.48c0.83,0.58,1.48,1.15,1.93,1.71c0.41,0.56,0.79,1.16,1.12,1.83c0.87,1.75,0.84,3.57-0.08,5.45
		c-0.79,1.93-2.88,3.73-6.25,5.42l-15.26,7.63L928.48,283.49z M975.07,299.97l8.15-4.07c3.83-1.91,5.26-3.98,4.29-6.19
		c-0.24-0.88-1.02-1.75-2.35-2.62c-1.33-0.85-4.06-2.31-8.2-4.38c-4.04-2.02-7.02-3.42-8.95-4.2c-1.99-0.75-3.99-1.16-6-1.24
		c-4.59-0.4-8.57,0.28-11.95,2.05l-8.15,4.07L975.07,299.97z"/>
</g>
<line class="st108" x1="671.33" y1="100.84" x2="887.34" y2="208.84"/>
<g>
	<polygon class="st97" points="477,342 477,405 603,405 	"/>
	<rect x="477" y="405" class="st98" width="126" height="18"/>
</g>
<polyline class="st107" points="603,423 603,405 477,342 "/>
<g>
	<polygon class="st109" points="585,166.5 603,175.5 603,157.5 585,148.5 	"/>
	<polygon class="st109" points="666,144 684,153 684,135 666,126 	"/>
	<polygon class="st109" points="630,126 648,135 648,117 630,108 	"/>
	<polygon class="st110" points="684,135 684,108 630,108 648,117 585,148.5 603,157.5 666,126 	"/>
	<polygon class="st109" points="603,175.5 666,144 666,126 603,157.5 	"/>
</g>
<g>
	<circle class="st112" cx="630" cy="135" r="3.19"/>
	<line class="st111" x1="630" y1="135" x2="539.59" y2="90"/>
</g>
</svg>
