<?xml version="1.0" encoding="utf-8"?>
<!-- Generator: Adobe Illustrator 26.5.0, SVG Export Plug-In . SVG Version: 6.00 Build 0)  -->
<svg version="1.1" id="Layer_1" xmlns="http://www.w3.org/2000/svg" xmlns:xlink="http://www.w3.org/1999/xlink" x="0px" y="0px"
	 width="1044px" height="558px" viewBox="0 0 1044 558" style="enable-background:new 0 0 1044 558;" xml:space="preserve">
<style type="text/css">
	.st0{fill:#FFFFFF;stroke:#939598;stroke-width:3.9009;stroke-miterlimit:10;}
	.st1{fill:#FFFFFF;}
	.st2{fill:#FEFEFE;}
	.st3{fill:#FDFDFD;}
	.st4{fill:#FCFCFC;}
	.st5{fill:#FBFBFB;}
	.st6{fill:#FAFAFA;}
	.st7{fill:#F9F9F9;}
	.st8{fill:#F8F8F8;}
	.st9{fill:#F7F7F8;}
	.st10{fill:#F6F6F7;}
	.st11{fill:#F5F5F6;}
	.st12{fill:#F4F4F5;}
	.st13{fill:#F3F3F4;}
	.st14{fill:#F2F2F3;}
	.st15{fill:#F1F1F2;}
	.st16{fill:#F0F1F1;}
	.st17{fill:#EFF0F0;}
	.st18{fill:#EEEFEF;}
	.st19{fill:#EDEEEE;}
	.st20{fill:#ECEDED;}
	.st21{fill:#EBECEC;}
	.st22{fill:#EAEBEB;}
	.st23{fill:#E9EAEA;}
	.st24{fill:#E8E9EA;}
	.st25{fill:#E7E8E9;}
	.st26{fill:#E6E7E8;}
	.st27{fill:#E5E6E7;}
	.st28{fill:#E4E5E6;}
	.st29{fill:#E3E4E5;}
	.st30{fill:#E2E3E4;}
	.st31{fill:#E1E2E3;}
	.st32{fill:#E0E1E2;}
	.st33{fill:#DFE0E1;}
	.st34{fill:#DEDFE0;}
	.st35{fill:#DDDEDF;}
	.st36{fill:#DCDDDE;}
	.st37{fill:#DBDCDD;}
	.st38{fill:#DADBDC;}
	.st39{fill:#D9DADC;}
	.st40{fill:#D8D9DB;}
	.st41{fill:#D7D8DA;}
	.st42{fill:#D6D7D9;}
	.st43{fill:#D5D6D8;}
	.st44{fill:#D4D5D7;}
	.st45{fill:#D3D4D6;}
	.st46{fill:#D3D4D5;}
	.st47{fill:#D2D3D4;}
	.st48{fill:#D1D2D3;}
	.st49{fill:#D0D1D2;}
	.st50{fill:#CFD0D1;}
	.st51{fill:#CECFD0;}
	.st52{fill:#CDCECF;}
	.st53{fill:#CCCDCF;}
	.st54{fill:#CBCCCE;}
	.st55{fill:#CACBCD;}
	.st56{fill:#C9CACC;}
	.st57{fill:#C8C9CB;}
	.st58{fill:#C7C8CA;}
	.st59{fill:#C6C7C9;}
	.st60{fill:#C5C6C8;}
	.st61{fill:#C4C5C7;}
	.st62{fill:#C3C4C6;}
	.st63{fill:#C2C3C5;}
	.st64{fill:#C1C2C4;}
	.st65{fill:#C0C1C3;}
	.st66{fill:#BFC0C2;}
	.st67{fill:#BEBFC1;}
	.st68{fill:#BDBEC1;}
	.st69{fill:#BCBDC0;}
	.st70{fill:#BBBCBF;}
	.st71{fill:#BABBBE;}
	.st72{fill:#B9BABD;}
	.st73{fill:#B8B9BC;}
	.st74{fill:#B7B8BB;}
	.st75{fill:#B6B7BA;}
	.st76{fill:#B5B7B9;}
	.st77{fill:#B4B6B8;}
	.st78{fill:#B3B5B7;}
	.st79{fill:#B2B4B6;}
	.st80{fill:#B1B3B5;}
	.st81{fill:#B0B2B4;}
	.st82{fill:#AFB1B3;}
	.st83{fill:#AEB0B3;}
	.st84{fill:#ADAFB2;}
	.st85{fill:#ACAEB1;}
	.st86{fill:#ABADB0;}
	.st87{fill:#AAACAF;}
	.st88{fill:#A9ABAE;}
	.st89{fill:#A8AAAD;}
	.st90{fill:#A7A9AC;}
	.st91{fill:#27AAE1;}
	.st92{fill:#8B5E3C;}
	.st93{fill:#C49A6C;}
	.st94{opacity:0.6;fill:#0078A5;}
	.st95{fill:#A97C50;}
	.st96{fill:#754C29;}
	.st97{fill:#F15A29;}
	.st98{fill:#BE1E2D;}
	.st99{fill:#8AD4DF;}
	.st100{opacity:0.4;fill:#0078A5;}
	.st101{opacity:0.8;fill:#0078A5;}
	.st102{opacity:0.4;fill:#5AB9DE;}
	.st103{fill:#9FDDF9;}
	.st104{fill:#0078A5;}
	.st105{fill:#939598;}
	.st106{fill:#D1D3D4;}
	.st107{fill:none;stroke:#BE1E2D;stroke-miterlimit:10;}
	.st108{fill:none;stroke:#0078A5;stroke-miterlimit:10;}
	.st109{fill:#FBB040;}
	.st110{fill:#FFF200;}
	.st111{fill:none;stroke:#231F20;stroke-width:2;stroke-miterlimit:10;}
	.st112{fill:#231F20;}
</style>
<path class="st0" d="M43.84,549h956.32c19.24,0,34.84-15.6,34.84-34.84V43.84C1035,24.6,1019.4,9,1000.16,9H43.84
	C24.6,9,9,24.6,9,43.84v470.32C9,533.4,24.6,549,43.84,549z"/>
<g>
	<path class="st1" d="M633.14,300.51L419.45,407.35c-24.5,12.25-24.5,47.2,0,59.45l141.69,70.84c9.36,4.68,20.37,4.68,29.73,0
		L804.55,430.8c24.5-12.25,24.5-47.2,0-59.45l-141.69-70.84C653.51,295.83,642.49,295.83,633.14,300.51z"/>
	<path class="st2" d="M633.03,300.96L420.28,407.33c-24.46,12.23-24.46,47.13,0,59.36l141.01,70.51c9.34,4.67,20.34,4.67,29.68,0
		l212.75-106.38c24.46-12.23,24.46-47.13,0-59.36l-141.01-70.51C653.37,296.29,642.37,296.29,633.03,300.96z"/>
	<path class="st3" d="M632.92,301.4L421.11,407.31c-24.42,12.21-24.42,47.06,0,59.27l140.34,70.17c9.33,4.66,20.31,4.66,29.63,0
		l211.82-105.91c24.42-12.21,24.42-47.06,0-59.27L662.55,301.4C653.23,296.74,642.25,296.74,632.92,301.4z"/>
	<path class="st4" d="M632.81,301.85L421.93,407.29c-24.38,12.19-24.38,46.99,0,59.18L561.6,536.3c9.31,4.66,20.28,4.66,29.59,0
		l210.88-105.44c24.38-12.19,24.38-46.99,0-59.18L662.4,301.85C653.09,297.2,642.13,297.2,632.81,301.85z"/>
	<path class="st5" d="M632.7,302.3L422.76,407.27c-24.34,12.17-24.34,46.91,0,59.09l138.99,69.5c9.3,4.65,20.24,4.65,29.54,0
		l209.94-104.97c24.34-12.17,24.34-46.91,0-59.09l-138.99-69.5C652.95,297.65,642,297.65,632.7,302.3z"/>
	<path class="st6" d="M632.6,302.75l-209.01,104.5c-24.31,12.15-24.31,46.84,0,58.99l138.32,69.16c9.28,4.64,20.21,4.64,29.5,0
		l209.01-104.5c24.31-12.15,24.31-46.84,0-58.99l-138.32-69.16C652.81,298.11,641.88,298.11,632.6,302.75z"/>
	<path class="st7" d="M632.49,303.2L424.41,407.23c-24.27,12.13-24.27,46.77,0,58.9l137.65,68.82c9.27,4.64,20.18,4.64,29.45,0
		l208.07-104.04c24.27-12.13,24.27-46.77,0-58.9L661.94,303.2C652.67,298.56,641.76,298.56,632.49,303.2z"/>
	<path class="st8" d="M632.38,303.64L425.24,407.21c-24.23,12.12-24.23,46.7,0,58.81l136.98,68.49c9.26,4.63,20.15,4.63,29.41,0
		l207.14-103.57c24.23-12.12,24.23-46.7,0-58.81l-136.98-68.49C652.53,299.02,641.63,299.02,632.38,303.64z"/>
	<path class="st9" d="M632.27,304.09l-206.2,103.1c-24.19,12.1-24.19,46.62,0,58.72l136.3,68.15c9.24,4.62,20.12,4.62,29.36,0
		l206.2-103.1c24.19-12.1,24.19-46.62,0-58.72l-136.3-68.15C652.39,299.47,641.51,299.47,632.27,304.09z"/>
	<path class="st10" d="M632.16,304.54L426.89,407.17c-24.16,12.08-24.16,46.55,0,58.63l135.63,67.81c9.23,4.61,20.09,4.61,29.31,0
		l205.27-102.63c24.16-12.08,24.16-46.55,0-58.63l-135.63-67.81C652.25,299.93,641.39,299.93,632.16,304.54z"/>
	<path class="st11" d="M632.05,304.99L427.72,407.15c-24.12,12.06-24.12,46.48,0,58.54l134.96,67.48c9.21,4.61,20.06,4.61,29.27,0
		L796.28,431c24.12-12.06,24.12-46.48,0-58.54l-134.96-67.48C652.11,300.38,641.27,300.38,632.05,304.99z"/>
	<path class="st12" d="M631.95,305.43l-203.4,101.7c-24.08,12.04-24.08,46.41,0,58.45l134.28,67.14c9.2,4.6,20.02,4.6,29.22,0
		l203.4-101.7c24.08-12.04,24.08-46.41,0-58.45l-134.28-67.14C651.97,300.84,641.14,300.84,631.95,305.43z"/>
	<path class="st13" d="M631.84,305.88L429.38,407.11c-24.04,12.02-24.04,46.33,0,58.35l133.61,66.8c9.18,4.59,19.99,4.59,29.18,0
		l202.46-101.23c24.04-12.02,24.04-46.33,0-58.35l-133.61-66.81C651.83,301.29,641.02,301.29,631.84,305.88z"/>
	<path class="st14" d="M631.73,306.33L430.2,407.09c-24.01,12-24.01,46.26,0,58.26l132.94,66.47c9.17,4.58,19.96,4.58,29.13,0
		L793.8,431.06c24.01-12,24.01-46.26,0-58.26l-132.94-66.47C651.69,301.75,640.9,301.75,631.73,306.33z"/>
	<path class="st15" d="M631.62,306.78l-200.59,100.3c-23.97,11.98-23.97,46.19,0,58.17l132.26,66.13c9.15,4.58,19.93,4.58,29.09,0
		l200.59-100.3c23.97-11.98,23.97-46.19,0-58.17l-132.26-66.13C651.55,302.2,640.78,302.2,631.62,306.78z"/>
	<path class="st16" d="M631.51,307.23l-199.65,99.83c-23.93,11.97-23.93,46.11,0,58.08l131.59,65.8c9.14,4.57,19.9,4.57,29.04,0
		l199.65-99.83c23.93-11.97,23.93-46.11,0-58.08l-131.59-65.8C651.41,302.66,640.65,302.66,631.51,307.23z"/>
	<path class="st17" d="M631.4,307.67l-198.72,99.36c-23.89,11.95-23.89,46.04,0,57.99l130.92,65.46c9.13,4.56,19.87,4.56,28.99,0
		l198.72-99.36c23.89-11.95,23.89-46.04,0-57.99L660.4,307.67C651.27,303.11,640.53,303.11,631.4,307.67z"/>
	<path class="st18" d="M631.3,308.12l-197.78,98.89c-23.85,11.93-23.85,45.97,0,57.9l130.24,65.12c9.11,4.56,19.84,4.56,28.95,0
		l197.78-98.89c23.85-11.93,23.85-45.97,0-57.9l-130.24-65.12C651.13,303.57,640.41,303.57,631.3,308.12z"/>
	<path class="st19" d="M631.19,308.57l-196.85,98.42c-23.82,11.91-23.82,45.9,0,57.81l129.57,64.79c9.1,4.55,19.81,4.55,28.9,0
		l196.85-98.42c23.82-11.91,23.82-45.9,0-57.81l-129.57-64.79C650.99,304.02,640.28,304.02,631.19,308.57z"/>
	<path class="st20" d="M631.08,309.02l-195.91,97.96c-23.78,11.89-23.78,45.82,0,57.71l128.9,64.45c9.08,4.54,19.77,4.54,28.86,0
		l195.91-97.96c23.78-11.89,23.78-45.82,0-57.71l-128.9-64.45C650.85,304.48,640.16,304.48,631.08,309.02z"/>
	<path class="st21" d="M630.97,309.46l-194.98,97.49c-23.74,11.87-23.74,45.75,0,57.62l128.23,64.11c9.07,4.53,19.74,4.53,28.81,0
		l194.98-97.49c23.74-11.87,23.74-45.75,0-57.62l-128.23-64.11C650.71,304.93,640.04,304.93,630.97,309.46z"/>
	<path class="st22" d="M630.86,309.91l-194.04,97.02c-23.7,11.85-23.7,45.68,0,57.53l127.55,63.78c9.05,4.53,19.71,4.53,28.77,0
		l194.04-97.02c23.7-11.85,23.7-45.68,0-57.53l-127.55-63.78C650.57,305.39,639.92,305.39,630.86,309.91z"/>
	<path class="st23" d="M630.75,310.36l-193.11,96.55c-23.67,11.83-23.67,45.61,0,57.44l126.88,63.44c9.04,4.52,19.68,4.52,28.72,0
		l193.11-96.55c23.67-11.83,23.67-45.61,0-57.44l-126.88-63.44C650.43,305.84,639.79,305.84,630.75,310.36z"/>
	<path class="st24" d="M630.64,310.81l-192.17,96.09c-23.63,11.81-23.63,45.53,0,57.35l126.21,63.1c9.03,4.51,19.65,4.51,28.67,0
		l192.17-96.09c23.63-11.81,23.63-45.53,0-57.35l-126.21-63.1C650.29,306.3,639.67,306.3,630.64,310.81z"/>
	<path class="st25" d="M630.54,311.26L439.3,406.87c-23.59,11.8-23.59,45.46,0,57.26l125.53,62.77c9.01,4.51,19.62,4.51,28.63,0
		l191.24-95.62c23.59-11.8,23.59-45.46,0-57.26l-125.53-62.77C650.15,306.75,639.55,306.75,630.54,311.26z"/>
	<path class="st26" d="M630.43,311.7l-190.3,95.15c-23.55,11.78-23.55,45.39,0,57.17l124.86,62.43c9,4.5,19.59,4.5,28.58,0
		l190.3-95.15c23.55-11.78,23.55-45.39,0-57.17L659.01,311.7C650.01,307.21,639.42,307.21,630.43,311.7z"/>
	<path class="st27" d="M630.32,312.15l-189.36,94.68c-23.52,11.76-23.52,45.32,0,57.07L565.14,526c8.98,4.49,19.55,4.49,28.54,0
		l189.36-94.68c23.52-11.76,23.52-45.32,0-57.07l-124.19-62.09C649.87,307.66,639.3,307.66,630.32,312.15z"/>
	<path class="st28" d="M630.21,312.6l-188.43,94.21c-23.48,11.74-23.48,45.24,0,56.98l123.51,61.76c8.97,4.48,19.52,4.48,28.49,0
		l188.43-94.21c23.48-11.74,23.48-45.24,0-56.98L658.7,312.6C649.74,308.12,639.18,308.12,630.21,312.6z"/>
	<path class="st29" d="M630.1,313.05l-187.49,93.75c-23.44,11.72-23.44,45.17,0,56.89l122.84,61.42c8.95,4.48,19.49,4.48,28.45,0
		l187.49-93.75c23.44-11.72,23.44-45.17,0-56.89l-122.84-61.42C649.6,308.57,639.06,308.57,630.1,313.05z"/>
	<path class="st30" d="M629.99,313.5l-186.56,93.28c-23.4,11.7-23.4,45.1,0,56.8l122.17,61.08c8.94,4.47,19.46,4.47,28.4,0
		l186.56-93.28c23.4-11.7,23.4-45.1,0-56.8L658.4,313.5C649.46,309.03,638.93,309.03,629.99,313.5z"/>
	<path class="st31" d="M629.89,313.94l-185.62,92.81c-23.37,11.68-23.37,45.03,0,56.71l121.5,60.75c8.92,4.46,19.43,4.46,28.35,0
		l185.62-92.81c23.37-11.68,23.37-45.03,0-56.71l-121.5-60.75C649.32,309.48,638.81,309.48,629.89,313.94z"/>
	<path class="st32" d="M629.78,314.39l-184.69,92.34c-23.33,11.66-23.33,44.95,0,56.62l120.82,60.41c8.91,4.46,19.4,4.46,28.31,0
		l184.69-92.34c23.33-11.66,23.33-44.95,0-56.62l-120.82-60.41C649.18,309.94,638.69,309.94,629.78,314.39z"/>
	<path class="st33" d="M629.67,314.84l-183.75,91.88c-23.29,11.65-23.29,44.88,0,56.53l120.15,60.07c8.9,4.45,19.37,4.45,28.26,0
		l183.75-91.88c23.29-11.65,23.29-44.88,0-56.53l-120.15-60.07C649.04,310.39,638.57,310.39,629.67,314.84z"/>
	<path class="st34" d="M629.56,315.29l-182.82,91.41c-23.25,11.63-23.25,44.81,0,56.43l119.48,59.74c8.88,4.44,19.34,4.44,28.22,0
		l182.82-91.41c23.25-11.63,23.25-44.81,0-56.43l-119.48-59.74C648.9,310.85,638.44,310.85,629.56,315.29z"/>
	<path class="st35" d="M629.45,315.73l-181.88,90.94c-23.21,11.61-23.21,44.74,0,56.34l118.8,59.4c8.87,4.43,19.3,4.43,28.17,0
		l181.88-90.94c23.21-11.61,23.21-44.74,0-56.34l-118.8-59.4C648.76,311.3,638.32,311.3,629.45,315.73z"/>
	<path class="st36" d="M629.34,316.18L448.4,406.66c-23.18,11.59-23.18,44.66,0,56.25l118.13,59.07c8.85,4.43,19.27,4.43,28.13,0
		L775.6,431.5c23.18-11.59,23.18-44.66,0-56.25l-118.13-59.07C648.62,311.76,638.2,311.76,629.34,316.18z"/>
	<path class="st37" d="M629.24,316.63l-180.01,90.01c-23.14,11.57-23.14,44.59,0,56.16l117.46,58.73c8.84,4.42,19.24,4.42,28.08,0
		l180.01-90.01c23.14-11.57,23.14-44.59,0-56.16l-117.46-58.73C648.48,312.21,638.07,312.21,629.24,316.63z"/>
	<path class="st38" d="M629.13,317.08l-179.08,89.54c-23.1,11.55-23.1,44.52,0,56.07l116.78,58.39c8.82,4.41,19.21,4.41,28.03,0
		l179.08-89.54c23.1-11.55,23.1-44.52,0-56.07l-116.78-58.39C648.34,312.67,637.95,312.67,629.13,317.08z"/>
	<path class="st39" d="M629.02,317.53L450.88,406.6c-23.06,11.53-23.06,44.45,0,55.98l116.11,58.06c8.81,4.4,19.18,4.4,27.99,0
		l178.14-89.07c23.06-11.53,23.06-44.45,0-55.98l-116.11-58.06C648.2,313.12,637.83,313.12,629.02,317.53z"/>
	<path class="st40" d="M628.91,317.97l-177.2,88.6c-23.03,11.51-23.03,44.37,0,55.89l115.44,57.72c8.8,4.4,19.15,4.4,27.94,0
		l177.2-88.6c23.03-11.51,23.03-44.37,0-55.89l-115.44-57.72C648.06,313.58,637.71,313.58,628.91,317.97z"/>
	<path class="st41" d="M628.8,318.42l-176.27,88.13c-22.99,11.49-22.99,44.3,0,55.8l114.77,57.38c8.78,4.39,19.12,4.39,27.9,0
		l176.27-88.13c22.99-11.49,22.99-44.3,0-55.8L656.7,318.42C647.92,314.03,637.58,314.03,628.8,318.42z"/>
	<path class="st42" d="M628.69,318.87l-175.33,87.67c-22.95,11.48-22.95,44.23,0,55.7l114.09,57.05c8.77,4.38,19.09,4.38,27.85,0
		l175.33-87.67c22.95-11.48,22.95-44.23,0-55.7l-114.09-57.05C647.78,314.49,637.46,314.49,628.69,318.87z"/>
	<path class="st43" d="M628.59,319.32l-174.4,87.2c-22.91,11.46-22.91,44.16,0,55.61l113.42,56.71c8.75,4.38,19.05,4.38,27.81,0
		l174.4-87.2c22.91-11.46,22.91-44.16,0-55.61l-113.42-56.71C647.64,314.94,637.34,314.94,628.59,319.32z"/>
	<path class="st44" d="M628.48,319.76L455.02,406.5c-22.88,11.44-22.88,44.08,0,55.52l112.75,56.37c8.74,4.37,19.02,4.37,27.76,0
		l173.46-86.73c22.88-11.44,22.88-44.08,0-55.52l-112.75-56.37C647.5,315.4,637.22,315.4,628.48,319.76z"/>
	<path class="st45" d="M628.37,320.21l-172.53,86.26c-22.84,11.42-22.84,44.01,0,55.43l112.07,56.04c8.72,4.36,18.99,4.36,27.71,0
		l172.53-86.26c22.84-11.42,22.84-44.01,0-55.43l-112.07-56.04C647.36,315.85,637.09,315.85,628.37,320.21z"/>
	<path class="st46" d="M628.26,320.66l-171.59,85.8c-22.8,11.4-22.8,43.94,0,55.34l111.4,55.7c8.71,4.35,18.96,4.35,27.67,0
		l171.59-85.8c22.8-11.4,22.8-43.94,0-55.34l-111.4-55.7C647.22,316.31,636.97,316.31,628.26,320.66z"/>
	<path class="st47" d="M628.15,321.11L457.5,406.44c-22.76,11.38-22.76,43.87,0,55.25l110.73,55.36c8.69,4.35,18.93,4.35,27.62,0
		l170.66-85.33c22.76-11.38,22.76-43.87,0-55.25l-110.73-55.36C647.08,316.76,636.85,316.76,628.15,321.11z"/>
	<path class="st48" d="M628.04,321.56l-169.72,84.86c-22.73,11.36-22.73,43.79,0,55.16l110.05,55.03c8.68,4.34,18.9,4.34,27.58,0
		l169.72-84.86c22.73-11.36,22.73-43.79,0-55.16l-110.05-55.03C646.94,317.22,636.72,317.22,628.04,321.56z"/>
	<path class="st49" d="M627.94,322L459.15,406.4c-22.69,11.34-22.69,43.72,0,55.06l109.38,54.69c8.67,4.33,18.87,4.33,27.53,0
		l168.79-84.39c22.69-11.34,22.69-43.72,0-55.06L655.47,322C646.8,317.67,636.6,317.67,627.94,322z"/>
	<path class="st50" d="M627.83,322.45l-167.85,83.92c-22.65,11.32-22.65,43.65,0,54.97l108.71,54.35c8.65,4.33,18.83,4.33,27.49,0
		l167.85-83.92c22.65-11.32,22.65-43.65,0-54.97l-108.71-54.35C646.66,318.13,636.48,318.13,627.83,322.45z"/>
	<path class="st51" d="M627.72,322.9L460.8,406.36c-22.61,11.31-22.61,43.57,0,54.88l108.04,54.02c8.64,4.32,18.8,4.32,27.44,0
		L763.2,431.8c22.61-11.31,22.61-43.57,0-54.88L655.16,322.9C646.52,318.58,636.36,318.58,627.72,322.9z"/>
	<path class="st52" d="M627.61,323.35l-165.98,82.99c-22.57,11.29-22.57,43.5,0,54.79l107.36,53.68c8.62,4.31,18.77,4.31,27.39,0
		l165.98-82.99c22.57-11.29,22.57-43.5,0-54.79l-107.36-53.68C646.38,319.04,636.23,319.04,627.61,323.35z"/>
	<path class="st53" d="M627.5,323.79l-165.04,82.52c-22.54,11.27-22.54,43.43,0,54.7l106.69,53.34c8.61,4.3,18.74,4.3,27.35,0
		l165.04-82.52c22.54-11.27,22.54-43.43,0-54.7l-106.69-53.34C646.24,319.49,636.11,319.49,627.5,323.79z"/>
	<path class="st54" d="M627.39,324.24L463.29,406.3c-22.5,11.25-22.5,43.36,0,54.61l106.02,53.01c8.59,4.3,18.71,4.3,27.3,0
		l164.11-82.05c22.5-11.25,22.5-43.36,0-54.61L654.7,324.24C646.1,319.95,635.99,319.95,627.39,324.24z"/>
	<path class="st55" d="M627.29,324.69l-163.17,81.59c-22.46,11.23-22.46,43.28,0,54.52l105.34,52.67c8.58,4.29,18.68,4.29,27.26,0
		l163.17-81.59c22.46-11.23,22.46-43.28,0-54.52l-105.34-52.67C645.96,320.4,635.87,320.4,627.29,324.69z"/>
	<path class="st56" d="M627.18,325.14l-162.24,81.12c-22.42,11.21-22.42,43.21,0,54.42l104.67,52.34c8.57,4.28,18.65,4.28,27.21,0
		l162.24-81.12c22.42-11.21,22.42-43.21,0-54.42l-104.67-52.34C645.82,320.86,635.74,320.86,627.18,325.14z"/>
	<path class="st57" d="M627.07,325.59l-161.3,80.65c-22.39,11.19-22.39,43.14,0,54.33l104,52c8.55,4.28,18.62,4.28,27.17,0
		l161.3-80.65c22.39-11.19,22.39-43.14,0-54.33l-104-52C645.68,321.31,635.62,321.31,627.07,325.59z"/>
	<path class="st58" d="M626.96,326.03l-160.37,80.18c-22.35,11.17-22.35,43.07,0,54.24l103.32,51.66c8.54,4.27,18.58,4.27,27.12,0
		l160.37-80.18c22.35-11.17,22.35-43.07,0-54.24l-103.32-51.66C645.54,321.77,635.5,321.77,626.96,326.03z"/>
	<path class="st59" d="M626.85,326.48L467.42,406.2c-22.31,11.16-22.31,42.99,0,54.15l102.65,51.33c8.52,4.26,18.55,4.26,27.07,0
		l159.43-79.72c22.31-11.16,22.31-42.99,0-54.15l-102.65-51.33C645.41,322.22,635.37,322.22,626.85,326.48z"/>
	<path class="st60" d="M626.74,326.93l-158.5,79.25c-22.27,11.14-22.27,42.92,0,54.06l101.98,50.99c8.51,4.25,18.52,4.25,27.03,0
		l158.5-79.25c22.27-11.14,22.27-42.92,0-54.06l-101.98-50.99C645.27,322.68,635.25,322.68,626.74,326.93z"/>
	<path class="st61" d="M626.64,327.38l-157.56,78.78c-22.24,11.12-22.24,42.85,0,53.97l101.31,50.65c8.49,4.25,18.49,4.25,26.98,0
		L754.92,432c22.24-11.12,22.24-42.85,0-53.97l-101.31-50.65C645.13,323.13,635.13,323.13,626.64,327.38z"/>
	<path class="st62" d="M626.53,327.83L469.9,406.14c-22.2,11.1-22.2,42.78,0,53.88l100.63,50.32c8.48,4.24,18.46,4.24,26.94,0
		l156.62-78.31c22.2-11.1,22.2-42.78,0-53.88l-100.63-50.32C644.99,323.59,635.01,323.59,626.53,327.83z"/>
	<path class="st63" d="M626.42,328.27l-155.69,77.84c-22.16,11.08-22.16,42.7,0,53.78l99.96,49.98c8.46,4.23,18.43,4.23,26.89,0
		l155.69-77.84c22.16-11.08,22.16-42.7,0-53.78l-99.96-49.98C644.85,324.04,634.88,324.04,626.42,328.27z"/>
	<path class="st64" d="M626.31,328.72L471.56,406.1c-22.12,11.06-22.12,42.63,0,53.69l99.29,49.64c8.45,4.23,18.4,4.23,26.85,0
		l154.75-77.38c22.12-11.06,22.12-42.63,0-53.69l-99.29-49.64C644.71,324.5,634.76,324.5,626.31,328.72z"/>
	<path class="st65" d="M626.2,329.17l-153.82,76.91c-22.09,11.04-22.09,42.56,0,53.6L571,508.99c8.44,4.22,18.37,4.22,26.8,0
		l153.82-76.91c22.09-11.04,22.09-42.56,0-53.6L653,329.17C644.57,324.95,634.64,324.95,626.2,329.17z"/>
	<path class="st66" d="M626.09,329.62l-152.88,76.44c-22.05,11.02-22.05,42.49,0,53.51l97.94,48.97c8.42,4.21,18.33,4.21,26.76,0
		l152.88-76.44c22.05-11.02,22.05-42.49,0-53.51l-97.94-48.97C644.43,325.41,634.52,325.41,626.09,329.62z"/>
	<path class="st67" d="M625.99,330.06l-151.95,75.97c-22.01,11-22.01,42.41,0,53.42l97.27,48.63c8.41,4.2,18.3,4.2,26.71,0
		l151.95-75.97c22.01-11,22.01-42.41,0-53.42l-97.27-48.63C644.29,325.86,634.39,325.86,625.99,330.06z"/>
	<path class="st68" d="M625.88,330.51l-151.01,75.51c-21.97,10.99-21.97,42.34,0,53.33l96.59,48.3c8.39,4.2,18.27,4.2,26.66,0
		l151.01-75.51c21.97-10.99,21.97-42.34,0-53.33l-96.59-48.3C644.15,326.32,634.27,326.32,625.88,330.51z"/>
	<path class="st69" d="M625.77,330.96L475.69,406c-21.93,10.97-21.93,42.27,0,53.24l95.92,47.96c8.38,4.19,18.24,4.19,26.62,0
		l150.08-75.04c21.93-10.97,21.93-42.27,0-53.24l-95.92-47.96C644.01,326.77,634.15,326.77,625.77,330.96z"/>
	<path class="st70" d="M625.66,331.41l-149.14,74.57c-21.9,10.95-21.9,42.2,0,53.14l95.25,47.62c8.36,4.18,18.21,4.18,26.57,0
		l149.14-74.57c21.9-10.95,21.9-42.2,0-53.14l-95.25-47.62C643.87,327.23,634.02,327.23,625.66,331.41z"/>
	<path class="st71" d="M625.55,331.86l-148.21,74.1c-21.86,10.93-21.86,42.12,0,53.05l94.58,47.29c8.35,4.17,18.18,4.17,26.53,0
		l148.21-74.1c21.86-10.93,21.86-42.12,0-53.05l-94.58-47.29C643.73,327.68,633.9,327.68,625.55,331.86z"/>
	<path class="st72" d="M625.44,332.3l-147.27,73.64c-21.82,10.91-21.82,42.05,0,52.96l93.9,46.95c8.34,4.17,18.15,4.17,26.48,0
		l147.27-73.64c21.82-10.91,21.82-42.05,0-52.96l-93.9-46.95C643.59,328.14,633.78,328.14,625.44,332.3z"/>
	<path class="st73" d="M625.34,332.75L479,405.92c-21.78,10.89-21.78,41.98,0,52.87l93.23,46.61c8.32,4.16,18.11,4.16,26.44,0
		L745,432.24c21.78-10.89,21.78-41.98,0-52.87l-93.23-46.61C643.45,328.59,633.66,328.59,625.34,332.75z"/>
	<path class="st74" d="M625.23,333.2l-145.4,72.7c-21.75,10.87-21.75,41.91,0,52.78l92.56,46.28c8.31,4.15,18.08,4.15,26.39,0
		l145.4-72.7c21.75-10.87,21.75-41.91,0-52.78l-92.56-46.28C643.31,329.05,633.53,329.05,625.23,333.2z"/>
	<path class="st75" d="M625.12,333.65l-144.46,72.23c-21.71,10.85-21.71,41.83,0,52.69l91.88,45.94c8.29,4.15,18.05,4.15,26.34,0
		l144.46-72.23c21.71-10.85,21.71-41.83,0-52.69l-91.88-45.94C643.17,329.5,633.41,329.5,625.12,333.65z"/>
	<path class="st76" d="M625.01,334.09l-143.53,71.76c-21.67,10.84-21.67,41.76,0,52.6l91.21,45.61c8.28,4.14,18.02,4.14,26.3,0
		l143.53-71.76c21.67-10.84,21.67-41.76,0-52.6l-91.21-45.61C643.03,329.96,633.29,329.96,625.01,334.09z"/>
	<path class="st77" d="M624.9,334.54l-142.59,71.3c-21.63,10.82-21.63,41.69,0,52.5l90.54,45.27c8.26,4.13,17.99,4.13,26.25,0
		l142.59-71.3c21.63-10.82,21.63-41.69,0-52.5l-90.54-45.27C642.89,330.41,633.16,330.41,624.9,334.54z"/>
	<path class="st78" d="M624.79,334.99l-141.66,70.83c-21.6,10.8-21.6,41.62,0,52.41L573,503.16c8.25,4.12,17.96,4.12,26.21,0
		l141.66-70.83c21.6-10.8,21.6-41.62,0-52.41L651,334.99C642.75,330.87,633.04,330.87,624.79,334.99z"/>
	<path class="st79" d="M624.69,335.44L483.96,405.8c-21.56,10.78-21.56,41.54,0,52.32l89.19,44.6c8.23,4.12,17.93,4.12,26.16,0
		l140.72-70.36c21.56-10.78,21.56-41.54,0-52.32l-89.19-44.6C642.61,331.32,632.92,331.32,624.69,335.44z"/>
	<path class="st80" d="M624.58,335.89l-139.79,69.89c-21.52,10.76-21.52,41.47,0,52.23l88.52,44.26c8.22,4.11,17.9,4.11,26.12,0
		l139.79-69.89c21.52-10.76,21.52-41.47,0-52.23l-88.52-44.26C642.47,331.78,632.8,331.78,624.58,335.89z"/>
	<path class="st81" d="M624.47,336.33l-138.85,69.43c-21.48,10.74-21.48,41.4,0,52.14l87.85,43.92c8.21,4.1,17.86,4.1,26.07,0
		l138.85-69.43c21.48-10.74,21.48-41.4,0-52.14l-87.84-43.92C642.33,332.23,632.67,332.23,624.47,336.33z"/>
	<path class="st82" d="M624.36,336.78l-137.92,68.96c-21.44,10.72-21.44,41.33,0,52.05l87.17,43.59c8.19,4.1,17.83,4.1,26.02,0
		l137.92-68.96c21.44-10.72,21.44-41.33,0-52.05l-87.17-43.59C642.19,332.69,632.55,332.69,624.36,336.78z"/>
	<path class="st83" d="M624.25,337.23l-136.98,68.49c-21.41,10.7-21.41,41.25,0,51.96l86.5,43.25c8.18,4.09,17.8,4.09,25.98,0
		l136.98-68.49c21.41-10.7,21.41-41.25,0-51.96l-86.5-43.25C642.05,333.14,632.43,333.14,624.25,337.23z"/>
	<path class="st84" d="M624.14,337.68L488.1,405.7c-21.37,10.68-21.37,41.18,0,51.86l85.83,42.91c8.16,4.08,17.77,4.08,25.93,0
		l136.05-68.02c21.37-10.68,21.37-41.18,0-51.86l-85.83-42.91C641.91,333.6,632.31,333.6,624.14,337.68z"/>
	<path class="st85" d="M624.03,338.12l-135.11,67.55c-21.33,10.67-21.33,41.11,0,51.77l85.15,42.58c8.15,4.07,17.74,4.07,25.89,0
		l135.11-67.55c21.33-10.67,21.33-41.11,0-51.77l-85.15-42.58C641.77,334.05,632.18,334.05,624.03,338.12z"/>
	<path class="st86" d="M623.93,338.57l-134.17,67.09c-21.29,10.65-21.29,41.04,0,51.68l84.48,42.24c8.13,4.07,17.71,4.07,25.84,0
		l134.17-67.09c21.29-10.65,21.29-41.04,0-51.68l-84.48-42.24C641.63,334.51,632.06,334.51,623.93,338.57z"/>
	<path class="st87" d="M623.82,339.02l-133.24,66.62c-21.26,10.63-21.26,40.96,0,51.59l83.81,41.9c8.12,4.06,17.68,4.06,25.8,0
		l133.24-66.62c21.26-10.63,21.26-40.96,0-51.59l-83.81-41.9C641.49,334.96,631.94,334.96,623.82,339.02z"/>
	<path class="st88" d="M623.71,339.47l-132.3,66.15c-21.22,10.61-21.22,40.89,0,51.5l83.13,41.57c8.1,4.05,17.64,4.05,25.75,0
		l132.3-66.15c21.22-10.61,21.22-40.89,0-51.5l-83.13-41.57C641.35,335.42,631.81,335.42,623.71,339.47z"/>
	<path class="st89" d="M623.6,339.92L492.23,405.6c-21.18,10.59-21.18,40.82,0,51.41l82.46,41.23c8.09,4.05,17.61,4.05,25.7,0
		l131.37-65.68c21.18-10.59,21.18-40.82,0-51.41l-82.46-41.23C641.21,335.87,631.69,335.87,623.6,339.92z"/>
	<path class="st90" d="M623.49,340.36l-130.43,65.22c-21.14,10.57-21.14,40.74,0,51.32l81.79,40.89c8.08,4.04,17.58,4.04,25.66,0
		l130.43-65.22c21.14-10.57,21.14-40.74,0-51.32l-81.79-40.89C641.08,336.33,631.57,336.33,623.49,340.36z"/>
</g>
<polygon class="st91" points="414,346.5 522,400.5 522,418.5 414,364.5 "/>
<path class="st92" d="M580.5,157.5c-22.5,108-40.5,108-220.5,198v27l288-144v-189C621,63,594.14,92.01,580.5,157.5z"/>
<path class="st93" d="M576,463.5c180-90,198-90,220.5-198c13.64-65.49,40.5-94.5,67.5-108l-216-108c-27,13.5-53.86,42.51-67.5,108
	c-22.5,108-40.5,108-220.5,198L576,463.5z"/>
<path class="st94" d="M599.33,100.84L360,220.5v135c180-90,198-90,220.5-198C585.32,134.36,591.8,115.79,599.33,100.84
	L599.33,100.84z"/>
<g>
	<path d="M313.83,118.31l7.18-3.59l40.04,12.96l0.12-0.06l-24.26-20.85l4.93-2.47l41.68,12.15l0.12-0.06l-25.9-20.04l7.18-3.59
		l35.18,28.81l-5.7,2.85l-42.03-12.45l-0.12,0.06l24.86,21.03l-5.67,2.84L313.83,118.31z"/>
	<path d="M372.1,89.18l6.8-3.4l46.4,23.2l-6.8,3.4L372.1,89.18z"/>
	<path d="M388.9,80.78l6.41-3.21l53.34,6.32l0.12-0.06l-32.99-16.49l6.8-3.4l46.4,23.2l-6.44,3.22l-53.31-6.33l-0.12,0.06
		l32.98,16.49l-6.8,3.4L388.9,80.78z"/>
	<path d="M433.48,58.49l15.73-7.86c6.13-3.02,13.3-4,21.52-2.93c2.83,0.33,5.34,0.89,7.53,1.7c2.14,0.84,5.55,2.43,10.24,4.78
		c4.99,2.49,8.29,4.32,9.91,5.48c0.83,0.58,1.48,1.15,1.93,1.71c0.41,0.56,0.79,1.16,1.12,1.83c0.87,1.75,0.84,3.57-0.08,5.45
		c-0.79,1.93-2.88,3.73-6.25,5.42l-15.26,7.63L433.48,58.49z M480.07,74.97l8.15-4.07c3.83-1.91,5.26-3.98,4.29-6.19
		c-0.24-0.88-1.02-1.75-2.35-2.62c-1.33-0.85-4.06-2.31-8.2-4.38c-4.04-2.02-7.02-3.42-8.95-4.2c-1.99-0.75-3.99-1.16-6-1.24
		c-4.59-0.4-8.57,0.28-11.95,2.05l-8.15,4.07L480.07,74.97z"/>
</g>
<g>
	<path d="M44.84,227.94h6.72v29.55c0.04,3.12,0.91,5.5,2.62,7.14c1.67,1.72,3.81,2.58,6.43,2.58c2.62,0,4.78-0.86,6.49-2.58
		c1.67-1.63,2.52-4.01,2.56-7.14v-29.55h6.72v30.28c-0.08,4.82-1.59,8.64-4.53,11.46c-2.96,2.91-6.71,4.39-11.23,4.43
		c-4.44-0.04-8.16-1.52-11.14-4.42c-3.04-2.82-4.59-6.64-4.63-11.45V227.94z"/>
	<path d="M85.61,241.13h6.34v3.39c2.11-2.43,4.82-3.7,8.15-3.8c3.87,0.1,6.7,1.53,8.48,4.27c0.87,1.03,1.47,2.38,1.79,4.05
		c0.3,1.65,0.46,4.46,0.46,8.42c0,3.85-0.15,6.62-0.46,8.29c-0.32,1.68-0.92,3.05-1.79,4.12c-0.87,1.26-2.02,2.26-3.44,3.02
		c-1.4,0.77-3.08,1.18-5.05,1.22c-1.62,0-3.07-0.36-4.35-1.09c-1.38-0.67-2.64-1.58-3.8-2.75v16.66h-6.34V241.13z M98.19,267.58
		c1.5,0,2.69-0.29,3.56-0.88c0.87-0.61,1.49-1.39,1.86-2.33c0.41-0.99,0.68-2.08,0.82-3.28c0.04-1.18,0.06-2.38,0.06-3.62
		c0-1.3-0.02-2.57-0.06-3.81c-0.14-1.24-0.42-2.33-0.82-3.28c-0.37-0.99-0.98-1.77-1.86-2.33c-0.87-0.52-2.06-0.79-3.56-0.79
		c-1.42,0-2.55,0.3-3.38,0.91c-0.87,0.61-1.51,1.41-1.92,2.4c-0.39,0.99-0.64,2.06-0.76,3.21c-0.12,1.22-0.18,2.45-0.18,3.69
		c0,1.16,0.06,2.31,0.18,3.47c0.12,1.22,0.38,2.32,0.76,3.31c0.41,0.99,1.04,1.79,1.92,2.39C95.64,267.26,96.76,267.58,98.19,267.58
		z"/>
	<path d="M137.43,250.89h-0.12l-6.6,22.84h-5.6l-10.1-32.6h6.72l6.05,22.87h0.12l7.18-22.87h4.59l7.18,22.87h0.12l6.02-22.87h6.72
		l-10.07,32.6h-5.63L137.43,250.89z"/>
	<path d="M170.22,259.91c0,2.62,0.73,4.61,2.19,5.97c1.36,1.38,3.15,2.07,5.36,2.07c2.58,0,4.88-1.06,6.91-3.17l4.6,4.05
		c-3.22,3.56-7.02,5.32-11.38,5.27c-1.66,0-3.29-0.25-4.87-0.75c-0.79-0.27-1.56-0.64-2.31-1.1c-0.79-0.4-1.53-0.89-2.22-1.48
		c-1.34-1.21-2.42-2.91-3.25-5.09c-0.91-2.09-1.37-4.82-1.37-8.17c0-3.22,0.4-5.9,1.19-8.04c0.79-2.18,1.8-3.89,3.04-5.15
		c1.26-1.28,2.67-2.2,4.23-2.76c1.54-0.57,3.06-0.85,4.56-0.85c3.61,0.04,6.66,1.27,9.15,3.68c2.53,2.45,3.82,5.82,3.86,10.12v5.4
		H170.22z M183.58,254.51c-0.08-2.55-0.74-4.47-1.98-5.78c-1.22-1.24-2.79-1.86-4.7-1.86s-3.48,0.62-4.7,1.86
		c-1.2,1.3-1.86,3.23-1.98,5.78H183.58z"/>
	<path d="M197.62,227.94h6.34v37.41c0,1.49,0.79,2.23,2.38,2.23h2.2v6.15h-2.83c-2.31,0-4.22-0.59-5.72-1.78
		c-1.58-1.21-2.37-3.24-2.37-6.1V227.94z"/>
	<path d="M214.2,227.94h6.34v37.41c0,1.49,0.79,2.23,2.38,2.23h2.2v6.15h-2.83c-2.31,0-4.22-0.59-5.72-1.78
		c-1.58-1.21-2.37-3.24-2.37-6.1V227.94z"/>
	<path d="M230.97,227.94h6.34v6.53h-6.34V227.94z M230.97,241.13h6.34v32.6h-6.34V241.13z"/>
	<path d="M246.21,241.13h6.34v3.46h0.12c2.09-2.58,4.82-3.86,8.21-3.86c2.61,0,5,0.95,7.17,2.86c2.15,1.93,3.27,4.75,3.37,8.48
		v21.67h-6.34v-19.44c0-2.29-0.59-4.03-1.77-5.22c-1.16-1.22-2.65-1.82-4.47-1.82s-3.33,0.61-4.5,1.82c-1.2,1.2-1.79,2.94-1.79,5.22
		v19.44h-6.34V241.13z"/>
	<path d="M298.5,270.33c-2.09,2.44-4.8,3.7-8.15,3.78c-2.05-0.04-3.75-0.49-5.11-1.35c-1.42-0.82-2.5-1.7-3.25-2.64
		c-0.83-1.07-1.43-2.38-1.79-3.93c-0.38-1.53-0.58-4.44-0.58-8.74c0-4.38,0.19-7.34,0.58-8.9c0.37-1.53,0.96-2.82,1.79-3.87
		c0.75-1.02,1.83-1.94,3.25-2.75c1.36-0.77,3.06-1.18,5.11-1.22c3.14,0,5.86,1.29,8.15,3.86v-3.46h6.34v31.82
		c-0.08,4.9-1.45,8.5-4.1,10.8c-2.67,2.37-5.87,3.55-9.6,3.55c-4.27-0.08-7.92-1.9-10.94-5.46l4.92-4.04
		c0.81,0.78,1.74,1.44,2.8,1.99c1.07,0.61,2.19,0.94,3.34,0.98c2.17,0,3.91-0.62,5.23-1.86c1.3-1.26,1.96-3.01,2.01-5.24V270.33z
		 M285.97,257.46c0,2.5,0.08,4.22,0.24,5.17c0.14,0.99,0.48,1.81,1,2.46c0.43,0.59,1.08,1.12,1.95,1.61
		c0.83,0.59,1.87,0.88,3.1,0.88c1.24,0,2.27-0.29,3.1-0.88c0.83-0.48,1.46-1.02,1.89-1.61c0.53-0.65,0.88-1.47,1.06-2.46
		c0.12-0.95,0.18-2.67,0.18-5.17c0-2.54-0.06-4.31-0.18-5.29c-0.18-0.99-0.54-1.79-1.06-2.4c-0.43-0.59-1.06-1.17-1.89-1.73
		c-0.83-0.48-1.87-0.75-3.1-0.79c-1.24,0.04-2.27,0.3-3.1,0.79c-0.87,0.57-1.52,1.15-1.95,1.73c-0.53,0.61-0.86,1.41-1,2.4
		C286.05,253.15,285.97,254.92,285.97,257.46z"/>
	<path d="M62.04,319.56c-3.59-4.44-5.38-9.21-5.38-14.34c0-5.13,1.79-9.9,5.38-14.3h1.37c-2.16,4.43-3.26,9.2-3.28,14.3
		c0.02,5.12,1.11,9.9,3.28,14.34H62.04z"/>
	<path d="M66.96,290.92h3.47l11,17.82h0.07v-17.82h3.68v25.07h-3.48L70.7,298.17h-0.07v17.82h-3.68V290.92z"/>
	<path d="M90.84,312.41h3.47v3.57h-3.47V312.41z"/>
	<path d="M121.24,305.03h-9.63v10.95h-3.68v-25.07h3.68v10.75h9.63v-10.75h3.68v25.07h-3.68V305.03z"/>
	<path d="M133.05,308.42c0,1.43,0.4,2.52,1.2,3.27c0.74,0.76,1.72,1.14,2.93,1.14c1.41,0,2.67-0.58,3.78-1.74l2.52,2.22
		c-1.76,1.95-3.84,2.91-6.23,2.89c-0.91,0-1.8-0.14-2.66-0.41c-0.43-0.15-0.85-0.35-1.27-0.6c-0.43-0.22-0.84-0.49-1.22-0.81
		c-0.73-0.67-1.33-1.59-1.78-2.79c-0.5-1.15-0.75-2.64-0.75-4.47c0-1.76,0.22-3.23,0.65-4.4c0.43-1.19,0.99-2.13,1.66-2.82
		c0.69-0.7,1.46-1.2,2.31-1.51c0.84-0.31,1.68-0.46,2.5-0.46c1.98,0.02,3.65,0.69,5.01,2.01c1.39,1.34,2.09,3.19,2.11,5.54v2.95
		H133.05z M140.36,305.46c-0.04-1.39-0.41-2.45-1.08-3.16c-0.67-0.68-1.52-1.02-2.57-1.02s-1.9,0.34-2.57,1.02
		c-0.66,0.71-1.02,1.77-1.08,3.16H140.36z"/>
	<path d="M147.9,298.14h3.48v1.89h0.07c1.18-1.41,2.73-2.12,4.66-2.12c1.24,0.02,2.23,0.24,2.99,0.64c0.75,0.45,1.43,1.01,2.05,1.7
		c1.4-1.58,3.27-2.36,5.62-2.34c1.48,0,2.83,0.52,4.06,1.57c1.21,1.05,1.84,2.6,1.89,4.64v11.86h-3.47v-10.64
		c0-1.25-0.33-2.2-1-2.86c-0.66-0.67-1.52-1-2.57-1c-1.05,0-1.91,0.33-2.59,1c-0.69,0.65-1.03,1.61-1.03,2.86v10.64h-3.47v-10.64
		c0-1.25-0.33-2.2-1-2.86c-0.68-0.67-1.54-1-2.59-1c-1.05,0-1.91,0.33-2.57,1c-0.7,0.65-1.05,1.61-1.05,2.86v10.64h-3.47V298.14z"/>
	<path d="M178.15,290.92h3.47v3.57h-3.47V290.92z M178.15,298.14h3.47v17.85h-3.47V298.14z"/>
	<path d="M186.99,310.54c1.41,1.53,3.24,2.29,5.48,2.29c1,0,1.82-0.2,2.45-0.6s0.95-0.96,0.95-1.69c0-0.64-0.19-1.09-0.57-1.34
		c-0.39-0.26-0.91-0.41-1.55-0.43l-3.07-0.28c-1.46-0.14-2.64-0.64-3.55-1.51c-0.93-0.85-1.41-2.04-1.44-3.56
		c0.02-1.83,0.65-3.21,1.88-4.13c1.2-0.92,2.72-1.38,4.57-1.38c0.8,0,1.52,0.05,2.15,0.16c0.63,0.11,1.23,0.27,1.78,0.48
		c1.07,0.45,2.02,1.05,2.87,1.8l-2.15,2.59c-0.67-0.5-1.37-0.91-2.12-1.23c-0.73-0.29-1.58-0.43-2.54-0.43
		c-1.09,0-1.85,0.2-2.29,0.6c-0.46,0.4-0.68,0.92-0.68,1.55c-0.02,0.4,0.15,0.75,0.52,1.05c0.33,0.33,0.92,0.54,1.77,0.64l2.87,0.22
		c1.8,0.14,3.1,0.7,3.9,1.69c0.75,0.96,1.12,2.19,1.12,3.67c-0.02,1.73-0.71,3.07-2.05,4.01c-1.33,0.96-3.04,1.46-5.11,1.48
		c-2.82,0-5.36-1.07-7.61-3.2L186.99,310.54z"/>
	<path d="M203.39,298.14h3.47V300c1.15-1.33,2.64-2.02,4.46-2.08c2.12,0.06,3.67,0.84,4.64,2.34c0.48,0.56,0.8,1.3,0.98,2.22
		c0.17,0.91,0.25,2.44,0.25,4.61c0,2.11-0.08,3.62-0.25,4.54c-0.18,0.92-0.5,1.67-0.98,2.25c-0.48,0.69-1.1,1.24-1.88,1.65
		c-0.77,0.42-1.69,0.65-2.76,0.67c-0.89,0-1.68-0.2-2.38-0.6c-0.75-0.36-1.45-0.87-2.08-1.5v9.12h-3.47V298.14z M210.27,312.62
		c0.82,0,1.47-0.16,1.95-0.48c0.48-0.33,0.82-0.76,1.02-1.28c0.22-0.54,0.37-1.14,0.45-1.79c0.02-0.64,0.03-1.31,0.03-1.98
		c0-0.71-0.01-1.41-0.03-2.09c-0.08-0.68-0.23-1.28-0.45-1.79c-0.2-0.54-0.54-0.97-1.02-1.28c-0.48-0.29-1.13-0.43-1.95-0.43
		c-0.78,0-1.39,0.17-1.85,0.5c-0.48,0.33-0.83,0.77-1.05,1.31c-0.21,0.54-0.35,1.13-0.42,1.76c-0.07,0.67-0.1,1.34-0.1,2.02
		c0,0.63,0.03,1.27,0.1,1.9c0.07,0.67,0.21,1.27,0.42,1.81c0.22,0.54,0.57,0.98,1.05,1.31C208.88,312.44,209.5,312.62,210.27,312.62
		z"/>
	<path d="M221.67,290.92h3.47v9.11h0.07c1.14-1.41,2.64-2.12,4.49-2.12c1.43,0,2.74,0.52,3.93,1.57c1.18,1.05,1.79,2.6,1.85,4.64
		v11.86H232v-10.64c0-1.25-0.32-2.2-0.97-2.86c-0.63-0.67-1.45-1-2.45-1c-1,0-1.82,0.33-2.46,1c-0.66,0.65-0.98,1.61-0.98,2.86
		v10.64h-3.47V290.92z"/>
	<path d="M243.19,308.42c0,1.43,0.4,2.52,1.2,3.27c0.74,0.76,1.72,1.14,2.93,1.14c1.41,0,2.67-0.58,3.78-1.74l2.52,2.22
		c-1.76,1.95-3.84,2.91-6.23,2.89c-0.91,0-1.8-0.14-2.66-0.41c-0.43-0.15-0.85-0.35-1.26-0.6c-0.43-0.22-0.84-0.49-1.22-0.81
		c-0.73-0.67-1.33-1.59-1.78-2.79c-0.5-1.15-0.75-2.64-0.75-4.47c0-1.76,0.22-3.23,0.65-4.4c0.43-1.19,0.99-2.13,1.66-2.82
		c0.69-0.7,1.46-1.2,2.31-1.51c0.84-0.31,1.67-0.46,2.5-0.46c1.97,0.02,3.65,0.69,5.01,2.01c1.39,1.34,2.09,3.19,2.11,5.54v2.95
		H243.19z M250.5,305.46c-0.04-1.39-0.41-2.45-1.08-3.16c-0.67-0.68-1.52-1.02-2.57-1.02c-1.05,0-1.9,0.34-2.57,1.02
		c-0.66,0.71-1.02,1.77-1.08,3.16H250.5z"/>
	<path d="M258.18,298.14h3.47v1.89h0.07c1.14-1.41,2.64-2.12,4.5-2.12c1.39,0.02,2.6,0.48,3.63,1.37l-2.53,3.1
		c-0.73-0.6-1.49-0.9-2.28-0.9c-0.89,0-1.65,0.3-2.28,0.89c-0.71,0.59-1.08,1.53-1.1,2.84v10.76h-3.47V298.14z"/>
	<path d="M273.86,308.42c0,1.43,0.4,2.52,1.2,3.27c0.74,0.76,1.72,1.14,2.93,1.14c1.41,0,2.67-0.58,3.78-1.74l2.52,2.22
		c-1.76,1.95-3.84,2.91-6.23,2.89c-0.91,0-1.8-0.14-2.66-0.41c-0.43-0.15-0.85-0.35-1.26-0.6c-0.43-0.22-0.84-0.49-1.22-0.81
		c-0.73-0.67-1.33-1.59-1.78-2.79c-0.5-1.15-0.75-2.64-0.75-4.47c0-1.76,0.22-3.23,0.65-4.4c0.43-1.19,0.99-2.13,1.66-2.82
		c0.69-0.7,1.46-1.2,2.31-1.51c0.84-0.31,1.67-0.46,2.5-0.46c1.97,0.02,3.65,0.69,5.01,2.01c1.39,1.34,2.09,3.19,2.11,5.54v2.95
		H273.86z M281.17,305.46c-0.04-1.39-0.41-2.45-1.08-3.16c-0.67-0.68-1.52-1.02-2.57-1.02c-1.05,0-1.9,0.34-2.57,1.02
		c-0.66,0.71-1.02,1.77-1.08,3.16H281.17z"/>
	<path d="M288.65,290.92c3.58,4.41,5.38,9.18,5.38,14.31c0,5.12-1.79,9.9-5.38,14.33h-1.37c2.13-4.43,3.22-9.21,3.27-14.33
		c-0.06-5.11-1.15-9.88-3.27-14.31H288.65z"/>
</g>
<polygon class="st95" points="360,382.5 576,490.5 576,463.5 360,355.5 "/>
<path class="st96" d="M796.5,265.5c-22.5,108-40.5,108-220.5,198v27l288-144v-189C837,171,810.14,200.01,796.5,265.5z"/>
<polygon class="st103" points="414,346.5 522,400.5 630,346.5 643.3,343.48 659.3,327.06 680.35,292.5 680.35,274.5 675.72,258.01 
	667.72,251.27 649.61,243.77 634.04,247.5 522,292.5 "/>
<g>
	<path class="st104" d="M630,238.5v18c24.85-12.43,45-2.36,45,22.5c0,24.85-20.15,55.08-45,67.5v18c34.79-17.4,63-59.71,63-94.51
		S664.79,221.1,630,238.5z"/>
	<polygon class="st104" points="630,346.5 522,400.5 522,418.5 630,364.5 	"/>
	<polygon class="st104" points="630,238.5 522,292.5 522,310.5 630,256.5 	"/>
</g>
<polygon class="st99" points="414,238.5 522,292.5 522,301.5 414,247.5 "/>
<rect x="522" y="301.5" class="st104" width="54" height="9"/>
<polygon class="st100" points="360,355.5 576,463.5 576,328.5 360,220.5 "/>
<path class="st101" d="M815.33,208.84L576,328.5v135c180-90,198-90,220.5-198C801.32,242.36,807.8,223.79,815.33,208.84
	L815.33,208.84z"/>
<polygon class="st102" points="599.33,100.83 815.33,208.84 576,328.5 360,220.5 "/>
<polygon class="st103" points="522,184.5 630,238.5 522,292.5 414,238.5 "/>
<path class="st103" d="M674.37,234.59L674.37,234.59l-107.79-53.9c-0.02-0.01-0.05-0.02-0.07-0.04l-0.13-0.07l-0.01,0
	c-11.39-5.6-27.06-4.75-44.37,3.91l108,54C647.31,229.84,662.98,228.99,674.37,234.59z"/>
<path class="st104" d="M630,238.5l-108,54v9l140.46-70.23C652.98,230.3,641.88,232.56,630,238.5z"/>
<path class="st104" d="M566.51,180.66l-0.13-0.07l-0.01,0c-3.57-1.76-7.57-2.88-11.9-3.32l108,54l0,0
	c4.34,0.45,8.33,1.57,11.91,3.32l0.01,0l-107.79-53.9C566.56,180.68,566.53,180.67,566.51,180.66z"/>
<g>
	<rect x="453.4" y="163.59" class="st105" width="108" height="18"/>
	<polygon class="st105" points="471.4,172.59 417.4,145.59 417.4,127.59 471.4,154.59 	"/>
	<polygon class="st106" points="561.4,109.59 561.4,163.59 453.4,163.59 471.4,154.59 417.4,127.59 489.4,91.59 543.4,118.59 	"/>
</g>
<g>
	<path d="M897.61,280.83h12.79v2.95h-9.76v5.91h8.33v2.78h-8.33v6.08h9.76v2.95h-12.79V280.83z"/>
	<path d="M913.51,280.83h2.86v12.86h0.06l5.48-6.9h3.43l-4.92,5.74l5.59,8.97h-3.6l-3.79-6.88l-2.25,2.64v4.24h-2.86V280.83z"/>
	<path d="M928.46,286.78h2.87v1.56h0.06c0.97-1.16,2.25-1.74,3.84-1.74c1.02,0.02,1.84,0.19,2.47,0.53c0.61,0.37,1.18,0.84,1.69,1.4
		c1.15-1.3,2.7-1.95,4.64-1.93c1.22,0,2.33,0.43,3.35,1.29c1,0.87,1.52,2.14,1.56,3.83v9.78h-2.86v-8.77c0-1.03-0.27-1.82-0.82-2.36
		c-0.55-0.55-1.25-0.82-2.12-0.82c-0.87,0-1.58,0.28-2.14,0.82c-0.57,0.54-0.85,1.32-0.85,2.36v8.77h-2.86v-8.77
		c0-1.03-0.27-1.82-0.82-2.36c-0.56-0.55-1.27-0.82-2.13-0.82s-1.57,0.28-2.12,0.82c-0.58,0.54-0.87,1.32-0.87,2.36v8.77h-2.86
		V286.78z"/>
	<path d="M960.8,300.2h-0.05c-0.27,0.5-0.68,0.87-1.24,1.11c-0.55,0.25-1.31,0.37-2.28,0.37c-1.59-0.02-2.82-0.45-3.68-1.3
		c-0.91-0.83-1.36-1.9-1.36-3.19c0-1.24,0.39-2.26,1.18-3.08c0.79-0.83,1.94-1.26,3.46-1.28h3.97v-1.55
		c0.02-1.3-0.96-1.93-2.92-1.89c-0.71,0-1.28,0.08-1.69,0.23c-0.43,0.18-0.77,0.48-1.02,0.91l-2.25-1.78
		c1.09-1.47,2.69-2.18,4.82-2.14c1.79-0.02,3.22,0.33,4.29,1.05c1.07,0.74,1.61,2,1.63,3.8v10.05h-2.86V300.2z M960.8,295.26h-3.44
		c-1.67,0.04-2.5,0.63-2.48,1.77c0,0.5,0.21,0.93,0.65,1.28c0.41,0.39,1.1,0.58,2.05,0.58c1.2,0.02,2.05-0.13,2.54-0.44
		c0.45-0.31,0.67-1.02,0.67-2.13V295.26z"/>
	<path d="M967.83,286.78h2.86v1.56h0.05c0.94-1.16,2.18-1.74,3.7-1.74c1.18,0,2.26,0.43,3.24,1.29c0.97,0.87,1.48,2.14,1.52,3.83
		v9.78h-2.86v-8.77c0-1.03-0.27-1.82-0.8-2.36c-0.52-0.55-1.2-0.82-2.02-0.82c-0.83,0-1.5,0.28-2.03,0.82
		c-0.54,0.54-0.81,1.32-0.81,2.36v8.77h-2.86V286.78z"/>
	<path d="M901.02,312.45h-5.49v-2.78h14.01v2.78h-5.49v17.89h-3.03V312.45z"/>
	<path d="M909.21,315.62h2.86v1.56h0.06c0.94-1.16,2.18-1.74,3.71-1.74c1.14,0.02,2.14,0.4,3,1.13l-2.09,2.56
		c-0.6-0.49-1.23-0.74-1.88-0.74c-0.73,0-1.36,0.25-1.88,0.74c-0.59,0.48-0.89,1.26-0.91,2.34v8.87h-2.86V315.62z"/>
	<path d="M927.47,329.04h-0.05c-0.27,0.5-0.68,0.87-1.24,1.11c-0.55,0.25-1.31,0.37-2.28,0.37c-1.59-0.02-2.82-0.45-3.68-1.3
		c-0.91-0.83-1.36-1.89-1.36-3.19c0-1.24,0.39-2.26,1.18-3.08c0.79-0.83,1.94-1.26,3.46-1.28h3.97v-1.55
		c0.02-1.3-0.96-1.93-2.92-1.89c-0.71,0-1.28,0.08-1.69,0.23c-0.43,0.18-0.77,0.48-1.02,0.91l-2.25-1.77
		c1.09-1.47,2.69-2.18,4.82-2.14c1.79-0.02,3.22,0.33,4.29,1.05c1.07,0.74,1.61,2,1.63,3.8v10.05h-2.86V329.04z M927.47,324.1h-3.44
		c-1.67,0.04-2.5,0.63-2.48,1.77c0,0.5,0.21,0.93,0.65,1.28c0.41,0.39,1.1,0.58,2.05,0.58c1.2,0.02,2.05-0.13,2.54-0.44
		c0.45-0.31,0.67-1.02,0.67-2.13V324.1z"/>
	<path d="M934.5,315.62h2.86v1.56h0.05c0.94-1.16,2.18-1.74,3.7-1.74c1.18,0,2.26,0.43,3.24,1.29c0.97,0.87,1.48,2.15,1.52,3.83
		v9.78h-2.86v-8.77c0-1.03-0.27-1.82-0.8-2.36c-0.52-0.55-1.2-0.82-2.02-0.82c-0.83,0-1.5,0.27-2.03,0.82
		c-0.54,0.54-0.81,1.33-0.81,2.36v8.77h-2.86V315.62z"/>
	<path d="M950.51,325.85c1.17,1.26,2.67,1.89,4.52,1.89c0.83,0,1.5-0.17,2.02-0.5c0.52-0.33,0.79-0.79,0.79-1.39
		c0-0.53-0.16-0.9-0.47-1.11c-0.32-0.22-0.75-0.34-1.28-0.35l-2.53-0.23c-1.2-0.11-2.18-0.53-2.93-1.25
		c-0.77-0.7-1.17-1.68-1.18-2.94c0.02-1.51,0.54-2.65,1.55-3.4c0.99-0.76,2.25-1.13,3.77-1.13c0.66,0,1.25,0.04,1.77,0.13
		c0.52,0.09,1.01,0.23,1.47,0.4c0.88,0.37,1.67,0.86,2.36,1.49l-1.78,2.14c-0.55-0.41-1.13-0.75-1.75-1.02
		c-0.61-0.24-1.3-0.36-2.09-0.36c-0.9,0-1.53,0.17-1.88,0.5c-0.38,0.33-0.56,0.76-0.56,1.28c-0.02,0.33,0.12,0.62,0.43,0.87
		c0.27,0.27,0.76,0.45,1.46,0.53l2.37,0.18c1.49,0.11,2.56,0.58,3.22,1.39c0.62,0.79,0.92,1.8,0.92,3.02
		c-0.02,1.43-0.58,2.53-1.69,3.31c-1.1,0.79-2.5,1.2-4.22,1.22c-2.33,0-4.42-0.88-6.28-2.64L950.51,325.85z"/>
	<path d="M964.03,315.62h2.86v1.53c0.95-1.1,2.18-1.67,3.68-1.71c1.75,0.05,3.02,0.69,3.83,1.93c0.39,0.46,0.66,1.07,0.81,1.83
		c0.14,0.75,0.21,2.01,0.21,3.8c0,1.74-0.07,2.99-0.21,3.74c-0.15,0.76-0.42,1.38-0.81,1.86c-0.39,0.57-0.91,1.02-1.55,1.36
		c-0.63,0.35-1.39,0.53-2.28,0.55c-0.73,0-1.39-0.17-1.96-0.49c-0.62-0.3-1.19-0.71-1.71-1.24v7.52h-2.86V315.62z M969.71,327.56
		c0.68,0,1.21-0.13,1.61-0.4c0.39-0.28,0.67-0.63,0.84-1.05c0.18-0.45,0.31-0.94,0.37-1.48c0.02-0.53,0.03-1.08,0.03-1.63
		c0-0.59-0.01-1.16-0.03-1.72c-0.06-0.56-0.19-1.05-0.37-1.48c-0.17-0.45-0.44-0.8-0.84-1.05c-0.39-0.24-0.93-0.36-1.61-0.36
		c-0.64,0-1.15,0.14-1.52,0.41c-0.39,0.28-0.68,0.64-0.87,1.08c-0.17,0.45-0.29,0.93-0.34,1.45c-0.05,0.55-0.08,1.1-0.08,1.66
		c0,0.52,0.03,1.04,0.08,1.56c0.06,0.55,0.17,1.05,0.34,1.49c0.18,0.45,0.47,0.81,0.87,1.08
		C968.56,327.42,969.07,327.56,969.71,327.56z"/>
	<path d="M978.39,322.97c0-1.55,0.12-2.75,0.37-3.58c0.26-0.81,0.65-1.5,1.18-2.06c0.39-0.49,0.94-0.93,1.65-1.31
		c0.7-0.37,1.59-0.56,2.68-0.58c1.13,0.02,2.04,0.21,2.73,0.58c0.69,0.39,1.22,0.83,1.59,1.32c0.57,0.56,0.97,1.24,1.21,2.06
		c0.23,0.83,0.34,2.02,0.34,3.57c0,1.55-0.11,2.73-0.34,3.54c-0.24,0.81-0.64,1.52-1.21,2.11c-0.18,0.22-0.41,0.43-0.67,0.64
		c-0.24,0.24-0.54,0.44-0.92,0.61c-0.7,0.41-1.61,0.62-2.73,0.64c-1.09-0.02-1.98-0.23-2.68-0.64c-0.7-0.37-1.25-0.78-1.65-1.25
		c-0.53-0.6-0.92-1.3-1.18-2.11C978.52,325.7,978.39,324.52,978.39,322.97z M987.28,323c0-1.05-0.05-1.82-0.14-2.3
		c-0.09-0.46-0.28-0.87-0.56-1.22c-0.21-0.33-0.52-0.59-0.94-0.78c-0.4-0.2-0.85-0.3-1.38-0.3c-0.49,0-0.94,0.1-1.35,0.3
		c-0.39,0.19-0.72,0.45-0.96,0.78c-0.25,0.35-0.43,0.76-0.54,1.22c-0.11,0.48-0.17,1.24-0.17,2.28c0,1.03,0.05,1.77,0.17,2.25
		c0.11,0.48,0.29,0.91,0.54,1.28c0.25,0.28,0.57,0.54,0.96,0.75c0.41,0.21,0.86,0.31,1.35,0.31c0.52,0,0.98-0.11,1.38-0.31
		c0.41-0.22,0.72-0.47,0.94-0.75c0.28-0.37,0.47-0.8,0.56-1.28C987.24,324.74,987.28,324,987.28,323z"/>
	<path d="M993.62,315.62h2.86v1.56h0.06c0.94-1.16,2.18-1.74,3.71-1.74c1.14,0.02,2.14,0.4,3,1.13l-2.09,2.56
		c-0.6-0.49-1.23-0.74-1.88-0.74c-0.73,0-1.36,0.25-1.88,0.74c-0.59,0.48-0.89,1.26-0.91,2.34v8.87h-2.86V315.62z"/>
	<path d="M1005.09,311.15h2.86v4.48h2.09v2.27h-2.09v8.58c-0.02,0.75,0.32,1.11,1.02,1.09h1.07v2.78h-1.49
		c-1.01,0-1.83-0.32-2.47-0.96c-0.66-0.61-0.99-1.5-0.99-2.66v-8.82h-1.44v-2.27h1.44V311.15z"/>
</g>
<g>
	<g>
		<polygon class="st103" points="351,378 441,387 459,432 522,400.5 414,346.5 		"/>
	</g>
	<polygon class="st104" points="459,432 459,450 522,418.5 522,400.5 	"/>
	<polygon class="st104" points="351,378 351,396 441,405 441,387 	"/>
	<polygon class="st104" points="441,387 441,405 459,450 459,432 	"/>
</g>
<polygon class="st103" points="540,274.5 576,292.5 396,292.5 396,202.5 432,220.5 "/>
<g>
	<g>
		<g>
			<path class="st91" d="M473.72,254.47l6.97-3.48l30.65,15.32c3.28,1.6,6.65,2.38,10.12,2.34c3.51,0.03,6.62-0.64,9.34-2
				c2.72-1.36,4.07-2.93,4.06-4.7c0.03-1.71-1.55-3.39-4.75-5.03l-30.65-15.32l6.97-3.48l31.4,15.7c4.91,2.54,7.31,5.31,7.19,8.3
				c-0.05,3.05-2.4,5.75-7.05,8.12c-4.65,2.28-10.03,3.44-16.14,3.48c-6.09,0.11-11.64-1.07-16.67-3.54L473.72,254.47z"/>
			<path class="st91" d="M516.59,233.04l16.68-8.34c1.81-0.91,3.73-1.69,5.76-2.36c2.14-0.61,4.78-1,7.92-1.16
				c2.51-0.19,5.21-0.02,8.09,0.51c2.86,0.48,5.59,1.38,8.19,2.68c3.52,1.76,5.52,3.96,6.01,6.61c0.58,2.75-1.46,5.33-6.11,7.75
				l-10.61,5.31l18.54,9.27l-6.97,3.48L516.59,233.04z M545.74,240.65l10.34-5.17c2.55-1.32,3.67-2.71,3.36-4.17
				c-0.33-1.41-1.45-2.59-3.37-3.55c-1.59-0.8-3.19-1.34-4.78-1.63c-1.51-0.23-3.02-0.25-4.54-0.05c-2.37,0.25-4.48,0.86-6.34,1.83
				l-10.09,5.04L545.74,240.65z"/>
		</g>
	</g>
	<g>
		<path class="st91" d="M450.89,251.06c1.05,0.84,1.51,1.67,1.36,2.47c-0.18,0.82-0.89,1.54-2.14,2.16
			c-1.15,0.55-2.37,0.88-3.66,0.98c-1.28,0.12-2.44,0.1-3.47-0.07c-0.33-0.06-0.63-0.12-0.92-0.18c-0.29-0.07-0.62-0.16-0.99-0.3
			c-0.69-0.25-1.88-0.79-3.57-1.64c-1.71-0.86-2.81-1.45-3.29-1.79c-0.48-0.34-0.78-0.66-0.93-0.94c-0.34-0.51-0.39-1.1-0.15-1.74
			c0.21-0.65,0.87-1.25,1.98-1.82c1.39-0.68,2.94-1.03,4.64-1.05c1.7-0.02,3.29,0.23,4.75,0.73l-2.3,1.15
			c-0.77-0.21-1.6-0.3-2.48-0.28c-0.88,0.04-1.68,0.23-2.39,0.57c-0.5,0.26-0.83,0.53-1,0.81c-0.17,0.29-0.22,0.57-0.14,0.83
			c0.04,0.3,0.26,0.6,0.67,0.89c0.42,0.32,1.36,0.84,2.81,1.56c1.45,0.73,2.49,1.19,3.11,1.4c0.61,0.21,1.21,0.33,1.81,0.34
			c0.53,0.04,1.08,0.01,1.64-0.08c0.59-0.07,1.14-0.23,1.65-0.49c1.22-0.61,1.46-1.4,0.71-2.37L450.89,251.06z"/>
		<path class="st91" d="M449.04,248.73c-1.72-0.86-2.82-1.46-3.3-1.8c-0.48-0.34-0.79-0.66-0.93-0.95
			c-0.33-0.51-0.38-1.09-0.15-1.74c0.21-0.64,0.88-1.25,1.99-1.82c1.15-0.56,2.37-0.9,3.67-1.01c1.28-0.11,2.43-0.08,3.45,0.1
			c0.6,0.06,1.23,0.21,1.91,0.45c0.66,0.25,1.85,0.8,3.57,1.66c1.69,0.84,2.78,1.44,3.29,1.77c0.5,0.34,0.81,0.66,0.93,0.96
			c0.35,0.51,0.41,1.08,0.17,1.71c-0.22,0.65-0.88,1.26-1.99,1.85c-1.15,0.55-2.37,0.88-3.66,0.98c-1.28,0.12-2.44,0.1-3.47-0.07
			c-0.33-0.06-0.63-0.12-0.92-0.18c-0.29-0.07-0.62-0.16-0.99-0.3C451.91,250.12,450.72,249.58,449.04,248.73z M451.2,247.65
			c1.45,0.73,2.49,1.19,3.11,1.4c0.61,0.21,1.21,0.33,1.81,0.34c0.53,0.04,1.08,0.01,1.64-0.08c0.59-0.07,1.14-0.24,1.65-0.49
			c0.52-0.26,0.85-0.54,1.01-0.84c0.17-0.27,0.21-0.54,0.12-0.8c-0.04-0.3-0.26-0.6-0.67-0.91c-0.42-0.31-1.35-0.82-2.8-1.55
			c-1.45-0.73-2.49-1.2-3.12-1.41c-0.61-0.2-1.21-0.31-1.81-0.32c-0.52-0.04-1.06-0.03-1.63,0.05c-0.58,0.09-1.13,0.26-1.66,0.52
			c-0.5,0.26-0.83,0.53-1,0.81c-0.17,0.29-0.22,0.57-0.14,0.83c0.04,0.3,0.26,0.6,0.67,0.89
			C448.81,246.4,449.75,246.93,451.2,247.65z"/>
		<path class="st91" d="M454.79,238.48l2.16-1.08l12.65,6.33l6.97-3.48l2.1,1.05l-9.13,4.57L454.79,238.48z"/>
		<path class="st91" d="M466.32,232.72l5-2.5c1.95-0.96,4.23-1.27,6.84-0.93c0.9,0.1,1.7,0.28,2.4,0.54
			c0.68,0.27,1.76,0.77,3.25,1.52c1.59,0.79,2.64,1.37,3.15,1.74c0.26,0.18,0.47,0.37,0.61,0.54c0.13,0.18,0.25,0.37,0.36,0.58
			c0.28,0.56,0.27,1.13-0.03,1.73c-0.25,0.61-0.91,1.19-1.99,1.72l-4.85,2.43L466.32,232.72z M481.13,237.96l2.59-1.3
			c1.22-0.61,1.67-1.27,1.36-1.97c-0.08-0.28-0.32-0.56-0.75-0.83c-0.42-0.27-1.29-0.73-2.61-1.39c-1.28-0.64-2.23-1.09-2.85-1.33
			c-0.63-0.24-1.27-0.37-1.91-0.39c-1.46-0.13-2.73,0.09-3.8,0.65l-2.59,1.3L481.13,237.96z"/>
		<path class="st91" d="M483.06,224.35l2.28-1.14l12.73,4.12l0.04-0.02l-7.72-6.63l1.57-0.78l13.25,3.86l0.04-0.02l-8.24-6.37
			l2.28-1.14l11.19,9.16l-1.81,0.91l-13.37-3.96l-0.04,0.02l7.91,6.69l-1.8,0.9L483.06,224.35z"/>
		<path class="st91" d="M519.6,217.53l-5.42,2.71l2.2,2.2l-2.29,1.15l-9.56-9.98l1.81-0.91l19.95,4.78l-2.28,1.14L519.6,217.53z
			 M517,216.85l-8.52-2.19l-0.04,0.02l4.39,4.26L517,216.85z"/>
		<path class="st91" d="M516.33,209.69l-3.92,1.96l-1.98-0.99l10-5l1.98,0.99l-3.92,1.96l12.77,6.39l-2.16,1.08L516.33,209.69z"/>
		<path class="st91" d="M522.29,204.73l9.13-4.57l2.1,1.05l-6.97,3.48l4.22,2.11l5.95-2.97l1.98,0.99l-5.95,2.97l4.34,2.17
			l6.97-3.48l2.1,1.05l-9.13,4.57L522.29,204.73z"/>
		<path class="st91" d="M533.81,198.97l5.58-2.79c1.19-0.6,2.49-0.92,3.89-0.97c1.64-0.09,3.16,0.2,4.57,0.87
			c1.98,1.02,2.42,2.16,1.33,3.43l9.86,1.62l-2.57,1.29l-9.26-1.67l-2.77,1.39l6.31,3.15l-2.16,1.08L533.81,198.97z M542.45,201.12
			l3.28-1.64c0.8-0.41,1.16-0.84,1.1-1.28c-0.04-0.42-0.38-0.79-1.02-1.11c-0.78-0.38-1.58-0.54-2.39-0.48
			c-0.67,0.03-1.35,0.22-2.05,0.57l-3.4,1.7L542.45,201.12z"/>
	</g>
</g>
<line class="st108" x1="599.33" y1="100.84" x2="815.34" y2="208.84"/>
<polygon class="st104" points="576,292.5 576,301.5 522,301.5 522,310.5 396,310.5 396,292.5 "/>
<polyline class="st108" points="396,238.5 396,310.5 522,310.5 522,301.5 "/>
<polyline class="st108" points="414,346.5 522,400.5 522,418.5 "/>
<g>
	<rect x="693" y="220.5" class="st109" width="54" height="13.5"/>
	<polygon class="st109" points="729,229.5 792,198 792,180 729,211.5 	"/>
	<polygon class="st110" points="693,193.5 693,220.5 747,220.5 729,211.5 792,180 774,171 711,202.5 	"/>
</g>
<g>
	<line class="st111" x1="711.9" y1="212.11" x2="886.5" y2="299.41"/>
	<circle class="st112" cx="711.9" cy="212.11" r="3.19"/>
</g>
</svg>
